<svg height="512pt" viewBox="0 -3 512 512" width="512pt" xmlns="http://www.w3.org/2000/svg"><g fill-rule="evenodd"><path d="m105.347656 150.664062c12.78125-20.496093 29.625-38.195312 49.40625-51.96875-47.808594-51.96875-78.359375-33.023437-57.453125 56.203126 2.640625-1.480469 5.320313-2.894532 8.046875-4.234376zm0 0" fill="#e199bd"/><path d="m97.300781 154.898438c-20.910156-89.226563 9.640625-108.171876 57.453125-56.203126 11.53125-8.03125 24.066406-14.730468 37.378906-19.863281-25.863281-26.46875-79.625-67.882812-106.5-68.78125-34.65625-2.660156-40.828124 100.117188-19.378906 167.175781 9.445313-8.546874 19.859375-16.046874 31.046875-22.328124zm0 0" fill="#eb8d7b"/><path d="m154.753906 98.695312c-19.78125 13.773438-36.625 31.472657-49.40625 51.96875-2.722656 1.339844-5.40625 2.753907-8.046875 4.234376-11.1875 6.28125-21.597656 13.78125-31.046875 22.328124-34.546875 31.234376-56.253906 76.402344-56.253906 126.640626 0 87.988281 66.566406 160.414062 152.082031 169.699218-13.894531-11.261718-22.089843-27.316406-22.089843-49.582031 0-8.851563 1.296874-18.15625 3.730468-27.546875 3.398438-13.121094 9.015625-26.414062 16.429688-38.890625 7.4375-12.523437 16.683594-24.21875 27.304687-34.09375 10.070313-9.363281 21.378907-17.085937 33.554688-22.3125-.164063-1.058594-.246094-2.128906-.246094-3.203125 0-17.027344 15.773437-22.089844 35.234375-22.089844s35.234375 5.0625 35.234375 22.089844c0 1.074219-.085937 2.144531-.25 3.203125 12.175781 5.226563 23.484375 12.949219 33.554687 22.3125 10.621094 9.875 19.867188 21.570313 27.308594 34.09375 7.410156 12.476563 13.03125 25.769531 16.429688 38.890625 2.433594 9.390625 3.726562 18.695312 3.726562 27.546875 0 22.265625-8.195312 38.320313-22.089844 49.582031 85.519532-9.28125 152.085938-81.710937 152.085938-169.699218 0-50.242188-21.707031-95.40625-56.253906-126.644532-9.449219-8.542968-19.859375-16.046875-31.050782-22.324218-2.636718-1.480469-5.320312-2.894532-8.042968-4.234376-12.78125-20.496093-29.625-38.195312-49.40625-51.96875-11.535156-8.03125-24.066406-14.730468-37.375-19.867187-19.816406-7.652344-41.355469-11.847656-63.871094-11.847656-22.519531 0-44.054688 4.195312-63.871094 11.847656-13.308594 5.136719-25.84375 11.835937-37.375 19.867187zm0 0" fill="#eb8d7b"/><path d="m426.367188 10.050781c-26.875.898438-80.640626 42.3125-106.496094 68.777344 13.308594 5.136719 25.84375 11.835937 37.375 19.867187 47.808594-51.96875 78.359375-33.023437 57.453125 56.203126 11.1875 6.277343 21.597656 13.78125 31.046875 22.328124 21.449218-67.058593 15.277344-169.835937-19.378906-167.175781zm0 0" fill="#ffecd1"/><path d="m414.699219 154.902344c20.910156-89.230469-9.640625-108.175782-57.453125-56.207032 19.78125 13.773438 36.628906 31.472657 49.40625 51.96875 2.726562 1.339844 5.40625 2.753907 8.046875 4.238282zm0 0" fill="#e199bd"/><path d="m291.234375 297.941406c0-17.027344-15.773437-22.09375-35.234375-22.09375s-35.234375 5.066406-35.234375 22.09375c0 1.074219.085937 2.140625.246094 3.199219 2.421875 15.722656 22.027343 29.335937 34.988281 29.335937s32.566406-13.613281 34.988281-29.335937c.160157-1.058594.246094-2.125.246094-3.199219zm0 0" fill="#c58965"/><path d="m290.988281 301.140625c-2.421875 15.722656-22.027343 29.335937-34.988281 29.335937s-32.566406-13.613281-34.988281-29.335937c-12.175781 5.226563-23.484375 12.949219-33.554688 22.3125-10.617187 9.871094-19.863281 21.570313-27.304687 34.09375-7.414063 12.476563-13.03125 25.769531-16.429688 38.890625-2.433594 9.390625-3.726562 18.695312-3.726562 27.546875 0 22.265625 8.195312 38.320313 22.089844 49.582031 21.082031 17.089844 55.292968 23.148438 93.914062 23.148438s72.832031-6.058594 93.917969-23.148438c13.894531-11.261718 22.089843-27.3125 22.089843-49.582031 0-8.851563-1.296874-18.152344-3.730468-27.546875-3.398438-13.121094-9.015625-26.414062-16.429688-38.890625-7.4375-12.519531-16.683594-24.21875-27.304687-34.09375-10.074219-9.363281-21.382813-17.085937-33.554688-22.3125zm0 0" fill="#ffecd1"/></g><path d="m483.949219 207.132812c-7.664063-12.0625-16.679688-23.113281-26.835938-32.964843 7.574219-26.289063 11.570313-57.882813 11.027344-87.804688-.363281-19.796875-3.167969-55.792969-17.921875-74.453125-8.355469-10.570312-17.84375-12.292968-24.394531-11.847656-31.28125 1.226562-84.246094 43.757812-108.519531 67.226562-19.621094-6.777343-40.363282-10.308593-61.304688-10.308593s-41.683594 3.53125-61.304688 10.308593c-24.273437-23.46875-77.238281-66-108.519531-67.226562-6.558593-.445312-16.039062 1.277344-24.394531 11.847656-14.753906 18.660156-17.558594 54.65625-17.921875 74.453125-.542969 29.933594 3.457031 61.539063 11.035156 87.835938-.316406.304687-.640625.59375-.953125.902343-3.9375 3.875-3.984375 10.207032-.113281 14.140626 3.875 3.9375 10.207031 3.984374 14.144531.113281 12.3125-12.125 26.375-22.121094 41.796875-29.722657 1.667969-.824218 3.078125-2.097656 4.0625-3.679687 12.109375-19.417969 27.667969-35.746094 45.609375-48.4375.738282-.390625 1.441406-.871094 2.082032-1.460937.007812-.007813.011718-.011719.019531-.019532 10.367187-7.097656 21.511719-12.976562 33.222656-17.558594.632813-.171874 1.25-.40625 1.847656-.707031 18.644531-7.039062 38.691407-10.789062 59.386719-10.789062 20.699219 0 40.753906 3.753906 59.402344 10.796875.585937.292968 1.199218.523437 1.824218.695312 11.714844 4.582032 22.859376 10.464844 33.230469 17.5625.003907.007813.011719.011719.015625.019532.644532.589843 1.347656 1.070312 2.082032 1.460937 17.945312 12.691406 33.503906 29.019531 45.613281 48.4375.984375 1.582031 2.394531 2.855469 4.0625 3.679687 13.25 6.53125 25.285156 14.675782 35.949219 24.117188.570312.664062 1.226562 1.257812 1.972656 1.757812 32.703125 29.925782 51.847656 72.355469 51.847656 118.359376 0 73.332031-48.960938 135.890624-117.453125 154.84375 4.960937-10.074219 7.460937-21.664063 7.460937-34.726563 0-5.890625-.542968-12-1.570312-18.222656 8.863281.269531 17.714844 2.410156 26.476562 6.417969 1.347657.617187 2.761719.910156 4.15625.910156 3.789063 0 7.417969-2.167969 9.097657-5.839844 2.300781-5.023438.089843-10.957031-4.933594-13.253906-13.078125-5.984375-26.359375-8.71875-39.6875-8.226563-2.542969-7.898437-5.808594-15.804687-9.722656-23.523437 9.867187-3.910156 20.113281-6.449219 30.628906-7.582032 5.492187-.589843 9.464844-5.519531 8.871094-11.011718-.589844-5.488282-5.519531-9.460938-11.011719-8.875-13.339844 1.4375-26.292969 4.804687-38.699219 10.039062-4.871093-7.296875-10.214843-14.09375-15.9375-20.296875 17.9375-12.34375 38.765625-19.070312 62.164063-19.984375 5.519531-.214844 9.816406-4.863281 9.601562-10.382812-.214844-5.515625-4.859375-9.808594-10.382812-9.601563-28.824219 1.125-54.378906 9.835938-76.183594 25.921875-7.554688-6.226562-15.539062-11.46875-23.777344-15.617187-1.046875-12.054688-8.949218-29.007813-45.097656-29.007813-36.144531 0-44.046875 16.953125-45.097656 29.003906-8.234375 4.152344-16.222656 9.394532-23.777344 15.621094-21.804688-16.085937-47.359375-24.796875-76.183594-25.921875-5.507812-.214843-10.164062 4.085938-10.382812 9.601563-.214844 5.519531 4.085937 10.167968 9.605468 10.382812 23.394532.914063 44.226563 7.640625 62.160157 19.984375-5.71875 6.199219-11.054688 12.988281-15.925781 20.277344-25.328126-10.722656-52.6875-13.515625-81.578126-8.289063-5.4375.984376-9.042968 6.1875-8.0625 11.621094.980469 5.433594 6.1875 9.042969 11.621094 8.0625 24-4.34375 46.730469-2.304687 67.800782 6.046875-3.914063 7.722657-7.179688 15.628907-9.726563 23.53125-13.328125-.492187-26.609375 2.238281-39.6875 8.222657-5.023437 2.300781-7.230469 8.234374-4.929687 13.257812 1.679687 3.671875 5.304687 5.839844 9.097656 5.839844 1.390625 0 2.804687-.292969 4.15625-.910156 8.757812-4.007813 17.609375-6.148438 26.476562-6.417969-1.03125 6.222656-1.570312 12.332031-1.570312 18.21875 0 13.066406 2.496094 24.65625 7.457031 34.730469-68.492187-18.953126-117.453125-81.511719-117.453125-154.84375 0-17.304688 2.734375-34.328126 8.128906-50.601563 1.738282-5.242187-1.101562-10.902344-6.34375-12.640625-5.246094-1.738281-10.902344 1.105469-12.640625 6.347656-6.066406 18.304688-9.144531 37.449219-9.144531 56.894532 0 44.832031 16.535156 87.828124 46.554688 121.070312 29.140624 32.269531 68.660156 52.863281 111.550781 58.222656 3.414062 2.546875 7.136719 4.894532 11.167969 7.039063 20.875 11.113281 49.246093 16.515625 86.726562 16.515625s65.851562-5.402344 86.726562-16.515625c4.03125-2.144531 7.753907-4.492188 11.167969-7.039063 42.890625-5.359375 82.410157-25.953125 111.546875-58.21875 30.023438-33.246094 46.558594-76.242187 46.558594-121.074218 0-34.386719-9.699219-67.835938-28.050781-96.734376zm-406.476563-182.820312c3.621094-4.582031 6.269532-4.378906 7.394532-4.292969.144531.011719.289062.019531.433593.023438 18.304688.613281 59.675781 28.453125 89.136719 55.582031-3.652344 1.765625-7.253906 3.652344-10.789062 5.65625-2.519532 1.433594-4.992188 2.9375-7.441407 4.480469-28.609375-28.601563-47.113281-28.339844-57.800781-22.679688-18.230469 9.652344-22.488281 39.640625-12.441406 86.898438-4.90625 3.027343-9.652344 6.300781-14.246094 9.785156-13.320312-54.007813-8.832031-117.007813 5.753906-135.453125zm26.039063 111.15625c-6.535157-37.503906-.484375-52.203125 4.253906-54.710938 3.707031-1.960937 14.25-.125 31.859375 16.753907-13.71875 10.890625-25.898438 23.6875-36.113281 37.957031zm323.1875-115.425781c.144531-.003907.289062-.011719.433593-.023438 1.132813-.085937 3.773438-.289062 7.394532 4.292969 14.582031 18.445312 19.074218 81.429688 5.757812 135.429688-4.585937-3.46875-9.34375-6.71875-14.253906-9.75 10.050781-47.261719 5.792969-77.253907-12.4375-86.910157-10.6875-5.65625-29.191406-5.921875-57.804688 22.679688-2.445312-1.542969-4.917968-3.046875-7.4375-4.480469-3.535156-2.003906-7.136718-3.890625-10.789062-5.65625 29.460938-27.128906 70.832031-54.96875 89.136719-55.582031zm-54.324219 77.46875c17.609375-16.878907 28.15625-18.71875 31.859375-16.753907 4.738281 2.507813 10.789063 17.207032 4.253906 54.710938-10.214843-14.269531-22.394531-27.066406-36.113281-37.957031zm-116.375 188.335937c25.234375 0 25.234375 8.785156 25.234375 12.089844 0 10.953125-16.410156 22.539062-25.234375 22.539062s-25.234375-11.585937-25.234375-22.539062c0-3.304688 0-12.089844 25.234375-12.089844zm-87.171875 180.335938c-.332031-.300782-.675781-.589844-1.046875-.847656-17.777344-14.601563-17.785156-32.796876-17.785156-41.351563 0-5.011719.492187-10.277344 1.4375-15.691406.09375.027343.1875.046875.28125.074219 5.308594 1.546874 10.855468-1.507813 12.394531-6.808594 1.542969-5.304688-1.503906-10.855469-6.808594-12.394532-.25-.074218-.503906-.132812-.753906-.203124 2.085937-5.972657 4.648437-11.96875 7.648437-17.863282 1.390626.667969 2.863282 1.011719 4.328126 1.011719 3.421874 0 6.753906-1.757813 8.621093-4.917969 2.652344-4.496094 1.382813-10.214844-2.777343-13.199218 4.117187-6 8.6875-11.738282 13.679687-17.054688 1.457031.765625 3.054687 1.15625 4.652344 1.15625 2.671875 0 5.339843-1.066406 7.308593-3.175781 2.78125-2.976563 3.386719-7.195313 1.898438-10.71875 4.335938-3.410157 8.894531-6.484375 13.640625-9.171875 2.679687 4.699218 6.429687 9.160156 11.179687 13.191406 5.945313 5.042969 12.703126 8.738281 19.277344 10.6875v38.417969c-3.226562 4.324219-8.222656 6.933593-13.515625 6.933593-6.050781 0-11.714843-3.410156-14.785156-8.898437-2.691406-4.816406-8.785156-6.542969-13.605469-3.847656-4.820312 2.695312-6.542968 8.789062-3.851562 13.609375 6.601562 11.804687 18.957031 19.136718 32.242187 19.136718 8.6875 0 16.972657-3.132812 23.515625-8.597656 6.539063 5.464844 14.828125 8.597656 23.511719 8.597656 13.285156 0 25.640625-7.332031 32.242187-19.136718 2.691407-4.820313.96875-10.914063-3.851562-13.609375-4.816406-2.691407-10.910156-.972657-13.605469 3.851562-3.070312 5.488281-8.734375 8.894531-14.785156 8.894531-5.292969 0-10.289063-2.609374-13.511719-6.933593v-38.417969c6.570313-1.949219 13.328125-5.644531 19.273438-10.6875 4.75-4.027344 8.5-8.492188 11.179687-13.191406 4.746094 2.6875 9.304688 5.761718 13.640625 9.175781-1.488281 3.523437-.882812 7.742187 1.898438 10.714844 1.96875 2.109375 4.636718 3.175781 7.308594 3.175781 1.597656 0 3.195312-.386719 4.652343-1.15625 4.992188 5.316406 9.5625 11.054688 13.679688 17.054688-4.160157 2.984374-5.429688 8.707031-2.777344 13.199218 1.867187 3.164063 5.199219 4.917969 8.621094 4.917969 1.464843 0 2.9375-.339844 4.328125-1.011719 3 5.894532 5.5625 11.890625 7.652344 17.863282-.253907.070312-.507813.128906-.757813.203124-5.304687 1.539063-8.351563 7.089844-6.808594 12.394532 1.542969 5.300781 7.089844 8.351562 12.394531 6.808594.09375-.027344.1875-.046876.28125-.074219.945313 5.414062 1.4375 10.679687 1.4375 15.691406 0 8.554687-.007812 26.75-17.785156 41.351563-.371094.257812-.714844.546874-1.046875.851562-14.667969 11.476562-40.761719 20.527344-87.171875 20.527344-46.417968 0-72.507812-9.050782-87.175781-20.53125zm0 0"/><path d="m177.855469 251.296875c1.632812-2.832031 4.679687-4.589844 7.949219-4.589844 3.269531 0 6.316406 1.757813 7.953124 4.589844 1.851563 3.207031 5.210938 5.003906 8.667969 5 1.695313 0 3.414063-.429687 4.988281-1.339844 4.785157-2.761719 6.421876-8.875 3.660157-13.660156-5.195313-9-14.878907-14.589844-25.269531-14.589844-10.390626 0-20.074219 5.589844-25.269532 14.589844-2.761718 4.785156-1.125 10.898437 3.660156 13.660156 4.78125 2.757813 10.894532 1.121094 13.660157-3.660156zm0 0"/><path d="m318.242188 251.296875c1.636718-2.832031 4.683593-4.589844 7.953124-4.589844 3.269532 0 6.316407 1.757813 7.953126 4.589844 1.851562 3.207031 5.210937 5 8.667968 5 1.695313 0 3.417969-.429687 4.992188-1.339844 4.78125-2.761719 6.421875-8.878906 3.660156-13.660156-5.199219-9-14.882812-14.589844-25.273438-14.589844-10.390624 0-20.074218 5.589844-25.269531 14.589844-2.765625 4.78125-1.125 10.898437 3.660157 13.660156 4.78125 2.761719 10.894531 1.121094 13.65625-3.660156zm0 0"/><path d="m30.523438 222.167969c1.632812 1.007812 3.441406 1.484375 5.230468 1.484375 3.355469 0 6.636719-1.691406 8.527344-4.761719l.003906-.003906c2.894532-4.703125 1.425782-10.859375-3.277344-13.753907-4.707031-2.898437-10.867187-1.425781-13.761718 3.277344-2.894532 4.703125-1.425782 10.863282 3.277344 13.757813zm0 0"/><path d="m435.414062 356.351562c5.234376 0 9.640626-4.078124 9.96875-9.375.347657-5.511718-3.84375-10.261718-9.355468-10.605468h-.007813c-5.53125-.335938-10.257812 3.847656-10.601562 9.359375s3.851562 10.257812 9.359375 10.601562c.214844.011719.425781.019531.636718.019531zm0 0"/></svg>