<svg height="511pt" viewBox="0 -64 511.99877 511" width="511pt" xmlns="http://www.w3.org/2000/svg"><path d="m76.488281 325.082031c-25.042969-43.378906-17.441406-94.652343 16.976563-114.527343 34.417968-19.871094 130.796875-28.628907 155.839844 14.75 25.046874 43.378906-30.726563 122.464843-65.148438 142.335937-34.417969 19.875-82.621094.820313-107.667969-42.558594zm0 0" fill="#70efef"/><path d="m186.027344 366.511719c-.628906.398437-1.25.769531-1.871094 1.128906-34.410156 19.878906-82.617188.820313-107.664062-42.5625-25.046876-43.375-17.445313-94.648437 16.976562-114.527344 9.671875-5.582031 24.246094-10.292969 40.75-13.214843-3.167969 1.339843-6.0625 2.753906-8.613281 4.222656-34.417969 19.867187-42.011719 71.140625-16.972657 114.527344 18.253907 31.621093 48.824219 50.316406 77.394532 50.425781zm0 0" fill="#42d2d9"/><path d="m435.507812 325.082031c25.042969-43.378906 17.445313-94.652343-16.976562-114.527343-34.417969-19.871094-130.796875-28.628907-155.839844 14.75-25.042968 43.378906 30.730469 122.464843 65.148438 142.335937 34.421875 19.875 82.625.820313 107.667968-42.558594zm0 0" fill="#70efef"/><path d="m485.867188 71.882812c31.753906 55 22.117187 120.015626-21.523438 145.210938-43.644531 25.195312-165.84375 36.300781-197.597656-18.703125-31.753906-55 38.960937-155.277344 82.601562-180.472656 43.644532-25.195313 104.765625-1.035157 136.519532 53.964843zm0 0" fill="#fd748c"/><path d="m26.132812 71.882812c-31.757812 55-22.121093 120.015626 21.523438 145.210938 43.640625 25.195312 165.839844 36.300781 197.597656-18.703125 31.753906-55-38.960937-155.277344-82.605468-180.472656-43.640626-25.195313-104.761719-1.035157-136.515626 53.964843zm0 0" fill="#fd748c"/><path d="m211.554688 226.265625c-49.566407 21.347656-130.183594 10.292969-163.902344-9.171875-43.644532-25.199219-53.277344-90.207031-21.515625-145.207031 21.445312-37.152344 56.277343-60.230469 90.078125-63.539063-22.488282 10.441406-43.324219 29.226563-57.9375 54.539063-31.761719 54.996093-22.117188 120.015625 21.527344 145.207031 27.105468 15.652344 84.523437 25.863281 131.75 18.171875zm0 0" fill="#fc4265"/><path d="m277.183594 103.402344c0 11.699218-9.484375 21.183594-21.183594 21.183594s-21.183594-9.484376-21.183594-21.183594c0-11.699219 9.484375-21.183594 21.183594-21.183594s21.183594 9.484375 21.183594 21.183594zm0 0" fill="#e0a98f"/><path d="m278.339844 190.164062c0 56.164063-10 135.675782-22.339844 135.675782s-22.34375-79.511719-22.34375-135.675782c0-56.167968 10.003906-78.21875 22.34375-78.21875s22.339844 22.050782 22.339844 78.21875zm0 0" fill="#ffd2bc"/><path d="m362.695312 171.671875c0-11.347656-12.023437-20.542969-26.855468-20.542969-14.828125 0-26.851563 9.195313-26.851563 20.542969 0 11.34375 12.023438 20.539063 26.851563 20.539063 14.832031 0 26.855468-9.195313 26.855468-20.539063zm0 0" fill="#70efef"/><path d="m203.011719 171.671875c0-11.347656-12.023438-20.542969-26.855469-20.542969-14.828125 0-26.851562 9.195313-26.851562 20.542969 0 11.34375 12.023437 20.539063 26.851562 20.539063 14.832031 0 26.855469-9.195313 26.855469-20.539063zm0 0" fill="#70efef"/><path d="m421.328125 75.257812c0 9.089844-7.371094 16.464844-16.464844 16.464844-9.089843 0-16.464843-7.375-16.464843-16.464844 0-9.09375 7.375-16.46875 16.464843-16.46875 9.09375 0 16.464844 7.375 16.464844 16.46875zm0 0" fill="#935641"/><path d="m123.597656 75.257812c0 9.089844-7.371094 16.464844-16.464844 16.464844s-16.464843-7.375-16.464843-16.464844c0-9.09375 7.371093-16.46875 16.464843-16.46875s16.464844 7.375 16.464844 16.46875zm0 0" fill="#935641"/><path d="m492.363281 68.132812c-33.769531-58.496093-99.609375-83.9375-146.765625-56.710937-22.117187 12.769531-48.703125 41.96875-67.605468 73.589844-1.347657-1.613281-2.871094-3.070313-4.539063-4.351563 2.160156-7.980468 4.40625-21.542968 4.730469-43.875.058594-4.144531-3.25-7.550781-7.394532-7.609375-.035156-.003906-.074218-.003906-.109374-.003906-4.09375 0-7.441407 3.289063-7.5 7.394531-.285157 19.785156-2.136719 31.667969-3.746094 38.363282-1.128906-.136719-2.273438-.214844-3.433594-.214844-1.164062 0-2.308594.078125-3.433594.214844-1.632812-6.773438-3.460937-18.644532-3.746094-38.363282-.0625-4.140625-3.4375-7.488281-7.609374-7.390625-4.144532.058594-7.453126 3.464844-7.394532 7.609375.320313 22.222656 2.539063 35.792969 4.730469 43.875-1.667969 1.28125-3.191406 2.738282-4.539063 4.347656-3.296874-5.523437-6.839843-11.015624-10.613281-16.414062-2.375-3.394531-7.054687-4.222656-10.449219-1.847656-3.394531 2.375-4.222656 7.054687-1.847656 10.449218 6.082032 8.699219 11.535156 17.625 16.222656 26.539063.082032 7.105469 2.785157 13.871094 7.539063 19.050781-5.785156 14.242188-8.703125 36.734375-8.703125 67.378906 0 5.972657.117188 12.230469.335938 18.628907-18.25 14.835937-49.160157 22.457031-87.441407 21.511719-33.441406-.828126-68.664062-8.75-87.644531-19.707032-39.988281-23.089844-48.414062-83.632812-18.777344-134.964844 29.632813-51.328124 86.277344-74.308593 126.269532-51.21875 9.097656 5.253907 19.996093 14.496094 30.6875 26.019532 2.816406 3.039062 7.5625 3.21875 10.601562.402344 3.039062-2.816407 3.21875-7.566407.402344-10.601563-11.855469-12.78125-23.675782-22.746094-34.1875-28.8125-47.152344-27.222656-112.996094-1.785156-146.765625 56.710937-33.773438 58.496094-22.890625 128.234376 24.265625 155.457032 5.363281 3.09375 11.933594 6.015625 19.402344 8.65625-14.101563 27.585937-11.695313 64.742187 6.6875 96.585937 12.957031 22.441407 32.15625 39.566407 54.058593 48.226563 10.125 4 20.285157 5.992187 30.097657 5.992187 12.003906 0 23.492187-2.980469 33.761718-8.910156 17.636719-10.183594 38.023438-32.433594 52.992188-57.085937 2.789062 8.007812 7.070312 16.289062 15.097656 16.289062 5.609375 0 10.582031-3.425781 15.117188-16.257812 14.964843 24.640624 35.34375 46.875 52.972656 57.054687 10.175781 5.875 21.664062 8.871094 33.75 8.871094 4.238281 0 8.550781-.367188 12.90625-1.109375 4.082031-.695313 6.832031-4.570313 6.136718-8.65625-.695312-4.085938-4.570312-6.828125-8.65625-6.136719-13.292968 2.261719-25.957031.203125-36.636718-5.964844-15.828125-9.140625-39.703125-34.414062-55.054688-65.238281.910156-4.671875 1.804688-9.882812 2.679688-15.726562 1.53125-10.1875 2.847656-21.394532 3.890625-32.917969 10.089843 21.726562 31.765625 55.960937 75.167969 81.898437 1.207031.71875 2.535156 1.0625 3.84375 1.0625 2.554687 0 5.042968-1.304687 6.445312-3.65625 2.125-3.554687.964844-8.164062-2.589844-10.289062-47.648437-28.472656-67.015625-68.488282-73.417968-85.453125 14.160156 6.933593 31.683593 11.5 51.46875 13.460937 5.910156 6.992188 23.773437 27.109375 40.390624 35.609375 1.09375.558594 2.257813.824219 3.410157.824219 2.726562 0 5.355469-1.492188 6.683593-4.085938 1.886719-3.691406.429688-8.210937-3.261718-10.097656-8.863282-4.535156-18.636719-13.542968-25.992188-21.160156.523438 0 1.042969.011719 1.570313.011719 6.128906 0 12.414062-.226563 18.820312-.679688 4.132813-.289062 7.25-3.878906 6.957031-8.011719-.292968-4.132812-3.875-7.242187-8.011718-6.953124-42.882813 3.027343-78.964844-4.609376-99.082032-20.957032.214844-6.394531.335938-12.648437.335938-18.621094 0-30.644531-2.921875-53.132812-8.707031-67.375 4.757812-5.1875 7.460937-11.96875 7.539062-19.070312 17.433594-33.144531 46.164063-66.453125 68.425781-79.304688 39.988282-23.085937 96.632813-.109374 126.269532 51.21875 29.632812 51.332032 21.210937 111.875-18.777344 134.964844-10.160156 5.867188-25.375 11.066406-42.839844 14.640625-4.0625.832031-6.679687 4.792969-5.847656 8.855469.726562 3.550781 3.851562 6 7.339844 6 .5 0 1.007812-.054688 1.515625-.15625 4.625-.945312 9.082031-1.996094 13.347656-3.128906 13.203125 23.261718 11.296875 56.117187-5.101563 84.519531-7.859374 13.617187-18.492187 25.164063-30.75 33.394531-3.441406 2.308594-4.355468 6.972656-2.046874 10.414063 1.449218 2.152343 3.820312 3.316406 6.234374 3.316406 1.4375 0 2.894532-.410156 4.175782-1.273437 14.148437-9.5 26.382812-22.761719 35.382812-38.347657 18.371094-31.824219 20.78125-68.949219 6.710938-96.53125 7.363281-2.621093 13.890625-5.542969 19.378906-8.710937 47.15625-27.222656 58.042969-96.960938 24.269531-155.457032zm-222.683593 35.269532c0 2.046875-.464844 4.039062-1.324219 5.851562-3.578125-3.1875-7.691407-4.808594-12.355469-4.808594s-8.78125 1.621094-12.359375 4.8125c-.859375-1.8125-1.324219-3.804687-1.324219-5.855468 0-7.542969 6.136719-13.679688 13.683594-13.679688 7.542969 0 13.679688 6.136719 13.679688 13.679688zm-89.273438 257.742187c-14.621094 8.441407-32.675781 9.140625-50.839844 1.960938-18.765625-7.417969-35.308594-22.253907-46.578125-41.777344-16.414062-28.425781-18.308593-61.316406-5.0625-84.585937 19.910157 5.308593 43.773438 8.679687 67.601563 8.675781.398437 0 .792968-.003907 1.191406-.007813-7.34375 7.605469-17.097656 16.589844-25.964844 21.125-3.691406 1.890625-5.152344 6.410156-3.265625 10.097656 1.328125 2.59375 3.957031 4.085938 6.6875 4.085938 1.148438 0 2.316407-.265625 3.410157-.824219 16.554687-8.46875 34.34375-28.46875 40.320312-35.527343 18.6875-1.808594 36.542969-6.050782 51.539062-13.457032-6.371093 16.972656-25.632812 56.8125-73.417968 85.371094-3.554688 2.125-4.714844 6.734375-2.589844 10.289062 1.40625 2.351563 3.894531 3.652344 6.445312 3.652344 1.308594 0 2.636719-.339844 3.84375-1.0625 43.402344-25.9375 65.078126-60.171875 75.167969-81.898437 1.042969 11.523437 2.359375 22.734375 3.890625 32.917969.851563 5.683593 1.753906 10.917968 2.691406 15.699218-15.351562 30.839844-39.234374 56.125-55.070312 65.265625zm66.347656-89.242187c-3.5-25.648438-5.59375-56.207032-5.59375-81.738282 0-25.320312 2.136719-45.332031 6.183594-57.867187 3.058594-9.484375 6.574219-12.847656 8.65625-12.847656s5.597656 3.363281 8.65625 12.847656c4.042969 12.535156 6.183594 32.546875 6.183594 57.867187 0 25.535157-2.09375 56.089844-5.597656 81.738282-3.203126 23.472656-6.730469 36.5-9.242188 42.742187-2.511719-6.242187-6.039062-19.269531-9.246094-42.742187zm0 0"/><path d="m301.484375 171.671875c0 15.460937 15.414063 28.039063 34.355469 28.039063 18.945312 0 34.355468-12.578126 34.355468-28.039063 0-15.464844-15.410156-28.042969-34.355468-28.042969-18.941406 0-34.355469 12.578125-34.355469 28.042969zm53.707031 0c0 7.066406-8.863281 13.035156-19.351562 13.035156-10.488282 0-19.347656-5.972656-19.347656-13.035156 0-7.070313 8.859374-13.039063 19.347656-13.039063 10.488281 0 19.351562 5.972657 19.351562 13.039063zm0 0"/><path d="m141.800781 171.671875c0 15.460937 15.414063 28.039063 34.355469 28.039063 18.945312 0 34.355469-12.578126 34.355469-28.039063 0-15.464844-15.410157-28.042969-34.355469-28.042969-18.941406 0-34.355469 12.578125-34.355469 28.042969zm53.707031 0c0 7.066406-8.863281 13.035156-19.351562 13.035156s-19.347656-5.972656-19.347656-13.035156c0-7.070313 8.859375-13.039063 19.347656-13.039063s19.351562 5.972657 19.351562 13.039063zm0 0"/><path d="m428.832031 75.257812c0-13.21875-10.75-23.96875-23.96875-23.96875-13.214843 0-23.964843 10.75-23.964843 23.96875 0 13.214844 10.75 23.964844 23.964843 23.964844 13.21875 0 23.96875-10.75 23.96875-23.964844zm-32.929687 0c0-4.945312 4.019531-8.964843 8.960937-8.964843 4.945313 0 8.964844 4.019531 8.964844 8.964843 0 4.941407-4.019531 8.960938-8.964844 8.960938-4.941406 0-8.960937-4.019531-8.960937-8.960938zm0 0"/><path d="m107.132812 51.289062c-13.214843 0-23.96875 10.75-23.96875 23.96875 0 13.214844 10.753907 23.964844 23.96875 23.964844 13.214844 0 23.96875-10.75 23.96875-23.964844 0-13.21875-10.753906-23.96875-23.96875-23.96875zm0 32.929688c-4.941406 0-8.960937-4.019531-8.960937-8.960938 0-4.945312 4.019531-8.964843 8.960937-8.964843 4.941407 0 8.960938 4.019531 8.960938 8.964843 0 4.941407-4.019531 8.960938-8.960938 8.960938zm0 0"/></svg>