<svg height="511pt" viewBox="0 -64 511.99886 511" width="511pt" xmlns="http://www.w3.org/2000/svg"><path d="m18.296875 199.894531c6.921875-6.921875 18.140625-6.921875 25.0625 0 6.921875 6.917969 6.921875 18.140625 0 25.058594-6.921875 6.921875-26.332031 15.113281-33.253906 8.195313-6.921875-6.921876 1.273437-26.335938 8.191406-33.253907zm0 0" fill="#4e5660"/><path d="m239.433594 293.28125c0 30.882812-25.035156 55.921875-55.921875 55.921875-30.882813 0-55.921875-25.039063-55.921875-55.921875 0-30.886719 25.039062-55.921875 55.921875-55.921875 30.886719 0 55.921875 25.035156 55.921875 55.921875zm0 0" fill="#eda1ab"/><path d="m329.820312 375.679688h-26.453124c-10.660157 0-19.304688-8.644532-19.304688-19.304688v-91.222656h65.0625v91.222656c0 10.660156-8.644531 19.304688-19.304688 19.304688zm0 0" fill="#fae0bd"/><path d="m329.820312 375.679688h-26.453124c-10.660157 0-19.304688-8.644532-19.304688-19.304688v-7.175781h65.0625v7.175781c0 10.660156-8.644531 19.304688-19.304688 19.304688zm0 0" fill="#383c43"/><path d="m368.023438 50.1875 8.679687 8.679688c6.074219 6.074218 15.664063 6.835937 22.617187 1.789062 11.914063-8.640625 19.269532-22.214844 20.003907-36.914062.570312-11.445313-11.410157-19.257813-21.652344-14.121094l-25.121094 12.589844c-10.65625 5.339843-12.953125 19.546874-4.527343 27.976562zm0 0" fill="#e1b89a"/><path d="m266.453125 110.496094h-80.328125c-53.691406 0-97.21875 43.523437-97.21875 97.21875v10.546875c0 19.644531 5.832031 37.925781 15.851562 53.210937v84.902344c0 10.660156 8.640626 19.304688 19.304688 19.304688h26.449219c10.664062 0 19.308593-8.644532 19.308593-19.304688v-42.261719c5.300782.894531 10.746094 1.367188 16.304688 1.367188h32.875v40.894531c0 10.664062 8.644531 19.304688 19.308594 19.304688h26.449218c10.664063 0 19.304688-8.640626 19.304688-19.304688v-42.488281c45.285156-8.285157 79.609375-47.945313 79.609375-95.625v-10.546875c0-53.695313-43.527344-97.21875-97.21875-97.21875zm0 0" fill="#fcf2d0"/><path d="m264.757812 375.679688h-26.453124c-10.660157 0-19.304688-8.644532-19.304688-19.304688v-7.175781h65.0625v7.175781c0 10.660156-8.644531 19.304688-19.304688 19.304688zm0 0" fill="#4e5660"/><path d="m150.511719 375.679688h-26.449219c-10.664062 0-19.304688-8.644532-19.304688-19.304688v-7.175781h65.0625v7.175781c0 10.660156-8.644531 19.304688-19.308593 19.304688zm0 0" fill="#4e5660"/><path d="m401.707031 88.972656c0-39.972656-32.40625-72.378906-72.378906-72.378906h-47.972656c-39.972657 0-72.378907 32.40625-72.378907 72.378906v37.972656c0 50.964844 41.316407 92.28125 92.28125 92.28125h130.078126c40.40625 0 73.164062-32.757812 73.164062-73.164062v-13.554688c0-24.042968-19.492188-43.535156-43.535156-43.535156zm0 0" fill="#fcf2d0"/><path d="m278.339844 16.671875c-38.574219 1.582031-69.363282 33.339844-69.363282 72.304687v37.96875c0 50.964844 41.316407 92.28125 92.28125 92.28125h55.464844c-67.808594-21.378906-90.269531-108.730468-78.382812-202.554687zm0 0" fill="#fae0bd"/><path d="m285.523438 87.5625c0-12.027344-12.246094-21.78125-27.351563-21.78125-15.109375 0-27.355469 9.753906-27.355469 21.78125 0 12.03125 12.246094 21.785156 27.355469 21.785156 15.105469 0 27.351563-9.753906 27.351563-21.785156zm0 0" fill="#eda1ab"/><path d="m384.09375 87.5625c0-12.027344-12.25-21.78125-27.355469-21.78125-15.109375 0-27.355469 9.753906-27.355469 21.78125 0 12.03125 12.246094 21.785156 27.355469 21.785156 15.105469 0 27.355469-9.753906 27.355469-21.785156zm0 0" fill="#eda1ab"/><path d="m460.964844 88.972656c24.042968 0 43.535156 19.492188 43.535156 43.535156v13.554688c0 40.40625-32.757812 73.164062-73.164062 73.164062s-73.164063-32.757812-73.164063-73.164062v-13.554688c0-24.042968 19.492187-43.535156 43.535156-43.535156zm0 0" fill="#eda1ab"/><path d="m242.097656 50.1875-8.679687 8.679688c-6.074219 6.074218-15.660157 6.835937-22.613281 1.789062-11.914063-8.640625-19.269532-22.214844-20.003907-36.914062-.570312-11.445313 11.40625-19.257813 21.652344-14.121094l25.117187 12.589844c10.660157 5.339843 12.957032 19.546874 4.527344 27.976562zm0 0" fill="#e1b89a"/><g fill="#4e5660"><path d="m214.125 149.949219c-18.925781 0-33.3125-17-30.183594-35.664063l5.417969-32.324218c2.03125-12.097657 12.5-20.957032 24.765625-20.957032s22.734375 8.859375 24.765625 20.957032l5.417969 32.324218c3.128906 18.664063-11.257813 35.664063-30.183594 35.664063zm0 0"/><path d="m88.90625 207.714844v.84375c11.804688 7.953125 24.585938 12.097656 35.140625 10.667968 23.972656-3.253906 65.988281-44.753906 25.917969-101.753906-35.777344 14.351563-61.058594 49.332032-61.058594 90.242188zm0 0"/><path d="m158.65625 233.6875c-15.089844 23.4375-6.148438 50.824219 19.683594 52.167969 25.832031 1.339843 58.128906 14.484375 54.710937-27.796875-2.105469-26.042969-11.925781-40.046875-31.878906-41.132813-19.953125-1.085937-32.792969 1.667969-42.515625 16.761719zm0 0"/><path d="m357.886719 251.347656c-25.394531-15.734375-47.226563-4.734375-53.933594 11.140625-5.738281 13.578125-3.394531 29.417969 5.925781 42.75 22.15625-11.085937 39.492188-30.367187 48.007813-53.890625zm0 0"/></g><path d="m474.453125 129.683594c0-7.140625-5.789063-12.929688-12.929687-12.929688-7.140626 0-12.925782 5.789063-12.925782 12.929688s5.785156 12.925781 12.925782 12.925781c7.140624 0 12.929687-5.785156 12.929687-12.925781zm-296.5 163.660156c4.304687.222656 9.015625.820312 13.570313 1.402344 6.15625.785156 12.402343 1.578125 18.328124 1.578125 8.53125 0 16.394532-1.648438 22.371094-7.359375 6.777344-6.472656 9.496094-16.78125 8.304688-31.511719-2.472656-30.589844-15.578125-46.746094-38.949219-48.015625-21.003906-1.140625-37.417969 1.855469-49.226563 20.1875-9.472656 14.710938-11.171874 32.019531-4.4375 45.164062 5.683594 11.09375 16.632813 17.859376 30.039063 18.554688zm-12.988281-55.59375c6.335937-9.84375 13.839844-13.53125 29.136718-13.53125 2.074219 0 4.289063.066406 6.660157.199219 10.308593.558593 22.445312 4.957031 24.8125 34.242187.546875 6.742188.34375 15.585938-3.710938 19.457032-4.960937 4.742187-16.898437 3.21875-28.445312 1.75-4.828125-.617188-9.820313-1.25-14.6875-1.503907-8.152344-.421875-14.191407-4.023437-17.464844-10.410156-4.304687-8.402344-2.886719-19.976563 3.699219-30.203125zm109.148437-189.078125c-4.144531 0-7.5 3.359375-7.5 7.5v9.660156c0 4.144531 3.355469 7.5 7.5 7.5 4.140625 0 7.5-3.355469 7.5-7.5v-9.660156c0-4.140625-3.359375-7.5-7.5-7.5zm186.851563 32.800781h-52.121094c-.523438-5.582031-1.609375-11.003906-3.226562-16.199218 12.691406-10.039063 20.386718-24.902344 21.195312-41.160157.402344-8.066406-3.394531-15.519531-10.160156-19.933593-6.765625-4.410157-15.121094-4.886719-22.339844-1.265626l-25.121094 12.589844c-1.3125.65625-2.546875 1.421875-3.707031 2.277344-10.863281-5.539062-23.144531-8.6875-36.15625-8.6875h-47.972656c-12.75 0-25.253907 3.042969-36.507813 8.835938-1.214844-.914063-2.519531-1.726563-3.914062-2.425782l-25.121094-12.589844c-7.222656-3.617187-15.570312-3.148437-22.339844 1.265626-6.765625 4.414062-10.566406 11.867187-10.164062 19.9375.640625 12.804687 5.542968 24.75 13.800781 34.152343-7.835937 4.78125-13.527344 12.804688-15.144531 22.449219l-3.785156 22.585938c-25.25 1.890624-48.71875 12.722656-66.644532 30.914062-11.222656 11.386719-19.523437 24.90625-24.542968 39.628906-16.332032.53125-31.90625 6.101563-44.824219 16.050782-9.453125-4.75-21.292969-3.191407-29.171875 4.6875-4.425782 4.425781-8.800782 12.15625-11.144532 19.703124-3.246093 10.433594-2.199218 19.011719 2.949219 24.160157 3.1875 3.1875 7.6875 4.800781 13.125 4.800781 3.351563 0 7.058594-.613281 11.035157-1.847656 7.546874-2.351563 15.28125-6.722656 19.703124-11.144532 8.042969-8.046874 9.503907-20.222656 4.382813-29.769531 8.867187-6.355469 19.160156-10.253906 30.003906-11.371093-1.085937 6.078124-1.644531 12.296874-1.644531 18.59375v10.546874c0 19.691407 5.472656 38.800782 15.851562 55.40625v23.640626c0 4.140624 3.355469 7.5 7.5 7.5 4.144532 0 7.5-3.359376 7.5-7.5v-25.832032c0-1.460937-.425781-2.890625-1.226562-4.109375-8.992188-13.722656-14-29.546875-14.566406-45.949219 8.003906 3.671876 15.925781 5.59375 23.269531 5.59375 1.808594 0 3.585937-.117187 5.320313-.351562 7.785156-1.054688 16.34375-5.078125 24.101562-11.328125 8.445312-6.804687 15.183594-15.613281 19.488281-25.472656 6.621094-15.167969 10.261719-38.882813-7.191406-68.410157 4.746094-1.347656 9.617187-2.328124 14.585937-2.882812-.195312 9.222656 2.949219 18.246094 8.996094 25.394531 5.464844 6.457031 12.828125 10.835938 20.925782 12.605469 12.871093 41.554688 51.351562 70.160156 95.296874 70.160156h54.488282c-.441406 4.710938-1.265625 9.324219-2.417969 13.816406-11.046875-4.738281-22.304687-5.617187-32.4375-2.394531-10.863281 3.457031-19.554687 11.265625-23.847656 21.421875-5.589844 13.230469-4.707031 28.5 2.121093 42.242188-5.246093 2.054687-10.742187 3.652344-16.453124 4.695312-3.5625.652344-6.148438 3.757813-6.148438 7.378906v27.816407h-50.0625v-26.21875c0-4.144531-3.355469-7.503907-7.5-7.503907h-32.875c-5.027344 0-10.09375-.425781-15.058594-1.261718-2.175781-.371094-4.402344.242187-6.089844 1.664062-1.6875 1.425782-2.660156 3.523438-2.660156 5.730469v27.589844h-50.0625v-8.671875c0-4.140625-3.355468-7.5-7.5-7.5-4.140625 0-7.5 3.359375-7.5 7.5v23.34375c0 14.78125 12.027344 26.804687 26.808594 26.804687h26.449219c14.773437 0 26.792969-12.011719 26.804687-26.78125 2.058594.199219 4.125.304688 6.195313.304688 9.746093 0 19.332031-2.277344 27.988281-6.53125v6.203125c0 14.78125 12.023438 26.808594 26.804688 26.808594h26.449218c7.578125 0 14.425782-3.167969 19.308594-8.238282 4.878906 5.070313 11.726562 8.238282 19.304688 8.238282h26.449218c14.78125 0 26.808594-12.027344 26.808594-26.808594v-84.960938c3.128906-5.300781 5.800781-10.890625 7.96875-16.714844.253906-.507812.445312-1.03125.574219-1.566406 2.972656-8.390625 4.886719-17.25 5.625-26.402344h60.542969c13.890624 0 27.589843-3.59375 39.621093-10.386718 3.605469-2.039063 4.878907-6.613282 2.839844-10.21875-2.035156-3.605469-6.609375-4.878906-10.21875-2.84375-9.78125 5.527344-20.933594 8.445312-32.242187 8.445312-36.207032 0-65.660157-29.457031-65.660157-65.660156v-13.554688c0-19.871093 16.164063-36.035156 36.03125-36.035156h59.257813c19.867187 0 36.035156 16.164063 36.035156 36.035156v13.554688c0 12.363281-3.453125 24.40625-9.984375 34.824219-2.203125 3.507812-1.140625 8.136719 2.367187 10.339843 3.511719 2.199219 8.140626 1.140626 10.339844-2.371093 8.03125-12.808594 12.277344-27.605469 12.277344-42.792969v-13.554688c0-28.140624-22.894531-51.035156-51.035156-51.035156zm-422.910156 138.179688c-6.191407 6.1875-20.246094 10.199218-22.640626 8.199218-2.019531-2.40625 1.992188-16.460937 8.1875-22.65625 3.648438-3.648437 9.394532-3.945312 13.398438-.90625.375.421876.789062.785157 1.226562 1.097657 3.804688 4 3.753907 10.339843-.171874 14.265625zm116.84375-35.796875c-5.386719 12.339843-18.777344 26.164062-31.859376 27.9375-7.53125 1.019531-17.042968-1.632813-26.554687-7.3125.796875-22.507813 9.847656-43.613281 25.730469-59.730469 7.355468-7.460938 15.796875-13.472656 24.976562-17.898438 15.75 25.226563 13.046875 44.773438 7.707032 57.003907zm-4.386719 184.324219h-26.449219c-6.398438 0-11.613281-5.121094-11.789062-11.480469h50.027343c-.175781 6.359375-5.390625 11.480469-11.789062 11.480469zm60.988281-35.398438c-8.140625 5.769531-17.953125 8.921875-27.988281 8.921875-2.070313 0-4.140625-.140625-6.191407-.402344v-18.691406c2.929688.246094 5.871094.371094 8.804688.371094h25.375zm53.257812 35.398438h-26.453124c-6.398438 0-11.609376-5.121094-11.789063-11.480469h50.03125c-.179687 6.359375-5.390625 11.480469-11.789063 11.480469zm65.0625 0h-26.453124c-6.398438 0-11.613282-5.121094-11.789063-11.480469h50.027344c-.175781 6.359375-5.386719 11.480469-11.785157 11.480469zm11.804688-26.476563h-50.0625v-21.757813c19.515625-4.796874 36.695312-15.015624 50.0625-28.835937zm-29.003906-46.507813c-4.917969-9.855468-5.632813-20.621093-1.761719-29.789062 2.546875-6.023438 7.996094-10.871094 14.582031-12.964844 5.101563-1.625 12.957032-2.3125 22.941406 2.296875-7.484374 16.78125-19.980468 30.960938-35.761718 40.457031zm-110.953125-278.449218c.707031-.460938 2.183593-1.238282 4.089843-1.238282 1.007813 0 2.136719.21875 3.332032.816407l25.121094 12.589843c2.898437 1.453126 4.859374 4.125 5.375 7.324219.519531 3.203125-.5 6.355469-2.792969 8.648438l-8.679688 8.679687c-.800781.796875-1.738281 1.429688-2.757812 1.914063-3.511719-1.28125-7.296875-1.976563-11.230469-1.976563-.105469 0-.210938.007813-.320312.007813-9.285157-7.355469-14.921876-18.238281-15.515626-30.140625-.191406-3.867188 2.300782-5.921875 3.378907-6.625zm-5.179688 117.523437c-4.398437-5.195312-6.273437-12.027343-5.148437-18.746093l5.417968-32.324219c1.324219-7.898438 7.707032-13.777344 15.515626-14.589844.089843-.007813.175781-.023437.261718-.035156.523438-.046875 1.054688-.070313 1.589844-.070313 2.628906 0 5.128906.578125 7.378906 1.613282.074219.039062.15625.066406.230469.101562 5.039063 2.402344 8.78125 7.144531 9.757813 12.980469l5.421874 32.324219c1.125 6.71875-.753906 13.550781-5.152343 18.746093-4.398438 5.199219-10.824219 8.179688-17.632813 8.179688-6.8125 0-13.242187-2.980469-17.640625-8.179688zm154.183594-1.761719v13.554688c0 27.054688 13.402344 51.023438 33.902344 65.664062h-83.316407c-35.722656 0-67.183593-22.242187-79.417968-55.074218 8.273437-1.703125 15.808594-6.117188 21.371094-12.691406 7.253906-8.570313 10.351562-19.84375 8.496093-30.917969l-5.421875-32.324219c-1.054687-6.277344-3.832031-11.863281-7.804687-16.324219.082031-.074219.164062-.144531.242187-.222656l8.679688-8.679687c5.742187-5.742188 8.289062-13.632813 6.992187-21.648438-.191406-1.199219-.476562-2.363281-.828125-3.496094 8.644532-4.105468 18.128906-6.253906 27.789063-6.253906h47.972656c33.445313 0 61.054687 25.441406 64.507813 57.988281-24.414063 3.796875-43.164063 24.960938-43.164063 50.425781zm48.78125-81.75c-5.003906-9.140624-11.742187-17.199218-19.769531-23.734374l21.347656-10.699219c3.460938-1.734375 6.34375-.28125 7.425781.421875 1.078125.703125 3.566407 2.761718 3.375 6.625-.523437 10.496094-4.972656 20.195312-12.378906 27.386718zm1.695313 65.996094c-7.140626 0-12.929688 5.789063-12.929688 12.929688s5.789062 12.925781 12.929688 12.925781c7.140624 0 12.925781-5.785156 12.925781-12.925781s-5.785157-12.929688-12.925781-12.929688zm-60.351563-68.082031c-4.144531 0-7.5 3.359375-7.5 7.5v9.660156c0 4.144531 3.355469 7.5 7.5 7.5 4.140625 0 7.5-3.355469 7.5-7.5v-9.660156c0-4.140625-3.359375-7.5-7.5-7.5zm90.539063 139.890625c8.046874 0 15.699218-3.484375 20.996093-9.5625 2.722657-3.121094 2.398438-7.859375-.726562-10.582031-3.121094-2.71875-7.859375-2.394531-10.582031.726562-2.445313 2.808594-5.976563 4.417969-9.6875 4.417969-3.710938 0-7.242188-1.609375-9.6875-4.417969-2.722657-3.121093-7.460938-3.445312-10.582032-.726562-3.125 2.722656-3.449218 7.460937-.730468 10.582031 5.296874 6.078125 12.953124 9.5625 21 9.5625zm0 0"/></svg>