<?xml version="1.0" encoding="UTF-8" standalone="no"?>
<svg
   xmlns:dc="http://purl.org/dc/elements/1.1/"
   xmlns:cc="http://creativecommons.org/ns#"
   xmlns:rdf="http://www.w3.org/1999/02/22-rdf-syntax-ns#"
   xmlns:svg="http://www.w3.org/2000/svg"
   xmlns="http://www.w3.org/2000/svg"
   xmlns:sodipodi="http://sodipodi.sourceforge.net/DTD/sodipodi-0.dtd"
   xmlns:inkscape="http://www.inkscape.org/namespaces/inkscape"
   height="351.47937pt"
   viewBox="0 -64 439.1885 351.47937"
   width="438.3317pt"
   version="1.1"
   id="svg1228"
   sodipodi:docname="animales.svg"
   inkscape:export-filename="/Users/lucianavarela/Downloads/imagenes/animales.png"
   inkscape:export-xdpi="96"
   inkscape:export-ydpi="96"
   inkscape:version="0.92.2 5c3e80d, 2017-08-06">
  <metadata
     id="metadata1234">
    <rdf:RDF>
      <cc:Work
         rdf:about="">
        <dc:format>image/svg+xml</dc:format>
        <dc:type
           rdf:resource="http://purl.org/dc/dcmitype/StillImage" />
        <dc:title></dc:title>
      </cc:Work>
    </rdf:RDF>
  </metadata>
  <defs
     id="defs1232" />
  <sodipodi:namedview
     pagecolor="#ffffff"
     bordercolor="#666666"
     borderopacity="1"
     objecttolerance="10"
     gridtolerance="10"
     guidetolerance="10"
     inkscape:pageopacity="0"
     inkscape:pageshadow="2"
     inkscape:window-width="1440"
     inkscape:window-height="791"
     id="namedview1230"
     showgrid="false"
     inkscape:document-units="pt"
     fit-margin-top="0"
     fit-margin-left="0"
     fit-margin-right="0"
     fit-margin-bottom="0"
     inkscape:zoom="0.6927593"
     inkscape:cx="230.61654"
     inkscape:cy="202.70556"
     inkscape:window-x="0"
     inkscape:window-y="1"
     inkscape:window-maximized="1"
     inkscape:current-layer="svg1228" />
  <g
     id="g2076"
     transform="matrix(0.50094244,0,0,0.50094244,-1.6705544e-4,-64.739189)">
    <path
       id="path2017"
       d="M 76.488281,325.08203 C 51.445312,281.70312 59.046875,230.42969 93.464844,210.55469 c 34.417966,-19.8711 130.796876,-28.62891 155.839846,14.75 25.04687,43.3789 -30.72657,122.46484 -65.14844,142.33593 -34.41797,19.875 -82.62109,0.82032 -107.667969,-42.55859 z m 0,0"
       inkscape:connector-curvature="0"
       style="fill:#70efef" />
    <path
       id="path2019"
       d="m 186.02734,366.51172 c -0.6289,0.39844 -1.25,0.76953 -1.87109,1.1289 -34.41016,19.87891 -82.61719,0.82032 -107.664062,-42.5625 -25.046876,-43.375 -17.445313,-94.64843 16.976562,-114.52734 9.67188,-5.58203 24.24609,-10.29297 40.75,-13.21484 -3.16797,1.33984 -6.0625,2.7539 -8.61328,4.22265 -34.41797,19.86719 -42.01172,71.14063 -16.97266,114.52735 18.25391,31.62109 48.82422,50.3164 77.39453,50.42578 z m 0,0"
       inkscape:connector-curvature="0"
       style="fill:#42d2d9" />
    <path
       id="path2021"
       d="m 435.50781,325.08203 c 25.04297,-43.37891 17.44531,-94.65234 -16.97656,-114.52734 -34.41797,-19.8711 -130.79688,-28.62891 -155.83984,14.75 -25.04297,43.3789 30.73046,122.46484 65.14843,142.33593 34.42188,19.875 82.625,0.82032 107.66797,-42.55859 z m 0,0"
       inkscape:connector-curvature="0"
       style="fill:#70efef" />
    <path
       id="path2023"
       d="M 485.86719,71.882812 C 517.62109,126.88281 507.98437,191.89844 464.34375,217.09375 420.69922,242.28906 298.5,253.39453 266.74609,198.39062 c -31.7539,-55 38.96094,-155.277339 82.60157,-180.472651 43.64453,-25.195313 104.76562,-1.035157 136.51953,53.964843 z m 0,0"
       inkscape:connector-curvature="0"
       style="fill:#fd748c" />
    <path
       id="path2025"
       d="M 26.132812,71.882812 C -5.625,126.88281 4.011719,191.89844 47.65625,217.09375 c 43.640625,25.19531 165.83984,36.30078 197.59766,-18.70313 31.7539,-55 -38.96094,-155.277339 -82.60547,-180.472651 C 119.00781,-7.277344 57.886719,16.882812 26.132812,71.882812 Z m 0,0"
       inkscape:connector-curvature="0"
       style="fill:#fd748c" />
    <path
       id="path2027"
       d="M 211.55469,226.26562 C 161.98828,247.61328 81.371094,236.55859 47.652344,217.09375 4.007812,191.89453 -5.625,126.88672 26.136719,71.886719 47.582031,34.734375 82.414062,11.65625 116.21484,8.347656 93.726562,18.789062 72.890625,37.574219 58.277344,62.886719 26.515625,117.88281 36.160156,182.90234 79.804688,208.09375 c 27.105472,15.65234 84.523432,25.86328 131.750002,18.17187 z m 0,0"
       inkscape:connector-curvature="0"
       style="fill:#fc4265" />
    <path
       id="path2029"
       d="m 277.18359,103.40234 c 0,11.69922 -9.48437,21.1836 -21.18359,21.1836 -11.69922,0 -21.18359,-9.48438 -21.18359,-21.1836 0,-11.699215 9.48437,-21.18359 21.18359,-21.18359 11.69922,0 21.18359,9.484375 21.18359,21.18359 z m 0,0"
       inkscape:connector-curvature="0"
       style="fill:#e0a98f" />
    <path
       id="path2031"
       d="m 278.33984,190.16406 c 0,56.16406 -10,135.67578 -22.33984,135.67578 -12.33984,0 -22.34375,-79.51172 -22.34375,-135.67578 0,-56.16797 10.00391,-78.21875 22.34375,-78.21875 12.33984,0 22.33984,22.05078 22.33984,78.21875 z m 0,0"
       inkscape:connector-curvature="0"
       style="fill:#ffd2bc" />
    <path
       id="path2033"
       d="m 362.69531,171.67187 c 0,-11.34765 -12.02344,-20.54296 -26.85547,-20.54296 -14.82812,0 -26.85156,9.19531 -26.85156,20.54296 0,11.34375 12.02344,20.53907 26.85156,20.53907 14.83203,0 26.85547,-9.19532 26.85547,-20.53907 z m 0,0"
       inkscape:connector-curvature="0"
       style="fill:#70efef" />
    <path
       id="path2035"
       d="m 203.01172,171.67187 c 0,-11.34765 -12.02344,-20.54296 -26.85547,-20.54296 -14.82813,0 -26.85156,9.19531 -26.85156,20.54296 0,11.34375 12.02343,20.53907 26.85156,20.53907 14.83203,0 26.85547,-9.19532 26.85547,-20.53907 z m 0,0"
       inkscape:connector-curvature="0"
       style="fill:#70efef" />
    <path
       id="path2037"
       d="m 421.32812,75.257812 c 0,9.089844 -7.37109,16.464844 -16.46484,16.464844 -9.08984,0 -16.46484,-7.375 -16.46484,-16.464844 0,-9.09375 7.375,-16.46875 16.46484,-16.46875 9.09375,0 16.46484,7.375 16.46484,16.46875 z m 0,0"
       inkscape:connector-curvature="0"
       style="fill:#935641" />
    <path
       id="path2039"
       d="m 123.59766,75.257812 c 0,9.089844 -7.3711,16.464844 -16.46485,16.464844 -9.093748,0 -16.464841,-7.375 -16.464841,-16.464844 0,-9.09375 7.371093,-16.46875 16.464841,-16.46875 9.09375,0 16.46485,7.375 16.46485,16.46875 z m 0,0"
       inkscape:connector-curvature="0"
       style="fill:#935641" />
    <path
       id="path2041"
       d="m 492.36328,68.132812 c -33.76953,-58.496093 -99.60937,-83.9375 -146.76562,-56.710937 -22.11719,12.769531 -48.70313,41.96875 -67.60547,73.589844 -1.34766,-1.613281 -2.8711,-3.070313 -4.53907,-4.351563 2.16016,-7.980468 4.40625,-21.542968 4.73047,-43.875 0.0586,-4.144531 -3.25,-7.550781 -7.39453,-7.609375 -0.0351,-0.0039 -0.0742,-0.0039 -0.10937,-0.0039 -4.09375,0 -7.44141,3.289063 -7.5,7.394531 -0.28516,19.785156 -2.13672,31.667969 -3.7461,38.363282 -1.1289,-0.136719 -2.27343,-0.214844 -3.43359,-0.214844 -1.16406,0 -2.30859,0.07813 -3.43359,0.214844 -1.63282,-6.773438 -3.46094,-18.644532 -3.7461,-38.363282 -0.0625,-4.140625 -3.4375,-7.488281 -7.60937,-7.390625 -4.14453,0.05859 -7.45313,3.464844 -7.39453,7.609375 0.32031,22.222656 2.53906,35.792969 4.73046,43.875 -1.66796,1.28125 -3.1914,2.738282 -4.53906,4.347656 -3.29687,-5.523437 -6.83984,-11.015624 -10.61328,-16.414062 -2.375,-3.394531 -7.05469,-4.222656 -10.44922,-1.847656 -3.39453,2.375 -4.22265,7.054687 -1.84765,10.449218 6.08203,8.699219 11.53515,17.625 16.22265,26.539072 0.082,7.10546 2.78516,13.87109 7.53906,19.05078 -5.78515,14.24218 -8.70312,36.73437 -8.70312,67.3789 0,5.97266 0.11719,12.23047 0.33594,18.62891 -18.25,14.83594 -49.16016,22.45703 -87.44141,21.51172 -33.44141,-0.82813 -68.664061,-8.75 -87.64453,-19.70703 C 11.417969,187.50781 2.992188,126.96484 32.628906,75.632812 62.261719,24.304688 118.90625,1.324219 158.89844,24.414062 c 9.09765,5.253907 19.99609,14.496094 30.6875,26.019532 2.8164,3.039062 7.5625,3.21875 10.60156,0.402344 3.03906,-2.816407 3.21875,-7.566407 0.40234,-10.601563 -11.85547,-12.78125 -23.67578,-22.746094 -34.1875,-28.8125 C 119.25,-15.800781 53.40625,9.636719 19.636719,68.132812 -14.136719,126.62891 -3.253906,196.36719 43.902344,223.58984 c 5.363281,3.09375 11.933594,6.01563 19.402344,8.65625 -14.101563,27.58594 -11.695313,64.74219 6.6875,96.58594 12.957031,22.44141 32.156252,39.56641 54.058592,48.22656 10.125,4 20.28516,5.99219 30.09766,5.99219 12.0039,0 23.49218,-2.98047 33.76172,-8.91016 17.63671,-10.18359 38.02343,-32.43359 52.99218,-57.08593 2.78907,8.00781 7.07032,16.28906 15.09766,16.28906 5.60937,0 10.58203,-3.42578 15.11719,-16.25781 14.96484,24.64062 35.34375,46.875 52.97265,57.05468 10.17578,5.875 21.66407,8.8711 33.75,8.8711 4.23828,0 8.55078,-0.36719 12.90625,-1.10938 4.08203,-0.69531 6.83203,-4.57031 6.13672,-8.65625 -0.69531,-4.08593 -4.57031,-6.82812 -8.65625,-6.13672 -13.29297,2.26172 -25.95703,0.20313 -36.63672,-5.96484 -15.82812,-9.14062 -39.70312,-34.41406 -55.05468,-65.23828 0.91015,-4.67188 1.80468,-9.88281 2.67968,-15.72656 1.53125,-10.1875 2.84766,-21.39453 3.89063,-32.91797 10.08984,21.72656 31.76562,55.96094 75.16797,81.89844 1.20703,0.71875 2.53515,1.0625 3.84375,1.0625 2.55468,0 5.04297,-1.30469 6.44531,-3.65625 2.125,-3.55469 0.96484,-8.16407 -2.58984,-10.28907 -47.64844,-28.47265 -67.01563,-68.48828 -73.41797,-85.45312 14.16015,6.93359 31.68359,11.5 51.46875,13.46094 5.91015,6.99218 23.77343,27.10937 40.39062,35.60937 1.09375,0.55859 2.25781,0.82422 3.41016,0.82422 2.72656,0 5.35547,-1.49219 6.68359,-4.08594 1.88672,-3.6914 0.42969,-8.21094 -3.26172,-10.09765 C 382.38281,262 372.60937,252.99219 365.25391,245.375 c 0.52343,0 1.04296,0.0117 1.57031,0.0117 6.1289,0 12.41406,-0.22656 18.82031,-0.67969 4.13281,-0.28906 7.25,-3.87891 6.95703,-8.01172 -0.29297,-4.13281 -3.875,-7.24219 -8.01172,-6.95312 -42.88281,3.02734 -78.96484,-4.60938 -99.08203,-20.95703 0.21485,-6.39454 0.33594,-12.64844 0.33594,-18.6211 0,-30.64453 -2.92188,-53.13281 -8.70703,-67.375 4.75781,-5.1875 7.46094,-11.96875 7.53906,-19.07031 17.43359,-33.144531 46.16406,-66.453125 68.42578,-79.304688 39.98828,-23.085937 96.63281,-0.109374 126.26953,51.21875 29.63282,51.332028 21.21094,111.874998 -18.77734,134.964848 -10.16016,5.86718 -25.375,11.0664 -42.83984,14.64062 -4.0625,0.83203 -6.67969,4.79297 -5.84766,8.85547 0.72656,3.55078 3.85156,6 7.33984,6 0.5,0 1.00782,-0.0547 1.51563,-0.15625 4.625,-0.94531 9.08203,-1.99609 13.34766,-3.12891 13.20312,23.26172 11.29687,56.11719 -5.10157,84.51953 -7.85937,13.61719 -18.49218,25.16407 -30.75,33.39454 -3.4414,2.30859 -4.35547,6.97265 -2.04687,10.41406 1.44922,2.15234 3.82031,3.3164 6.23437,3.3164 1.4375,0 2.89453,-0.41015 4.17578,-1.27343 14.14844,-9.5 26.38282,-22.76172 35.38282,-38.34766 18.37109,-31.82422 20.78125,-68.94922 6.71093,-96.53125 7.36329,-2.62109 13.89063,-5.54297 19.37891,-8.71094 C 515.25,196.36719 526.13672,126.62891 492.36328,68.132812 Z M 269.67969,103.40234 c 0,2.04688 -0.46485,4.03907 -1.32422,5.85157 -3.57813,-3.1875 -7.69141,-4.8086 -12.35547,-4.8086 -4.66406,0 -8.78125,1.6211 -12.35938,4.8125 -0.85937,-1.8125 -1.32421,-3.80468 -1.32421,-5.85547 0,-7.542965 6.13671,-13.679684 13.68359,-13.679684 7.54297,0 13.67969,6.136719 13.67969,13.679684 z m -89.27344,257.74219 c -14.62109,8.44141 -32.67578,9.14063 -50.83984,1.96094 -18.76563,-7.41797 -35.308598,-22.25391 -46.578129,-41.77735 -16.414062,-28.42578 -18.308593,-61.3164 -5.0625,-84.58593 19.910157,5.30859 43.773439,8.67968 67.601559,8.67578 0.39844,0 0.79297,-0.004 1.19141,-0.008 -7.34375,7.60546 -17.09766,16.58984 -25.96484,21.125 -3.69141,1.89062 -5.15235,6.41015 -3.26563,10.09765 1.32813,2.59375 3.95703,4.08594 6.6875,4.08594 1.14844,0 2.31641,-0.26562 3.41016,-0.82422 16.55468,-8.46875 34.34375,-28.46875 40.32031,-35.52734 18.6875,-1.8086 36.54297,-6.05078 51.53906,-13.45703 -6.37109,16.97265 -25.63281,56.8125 -73.41797,85.37109 -3.55468,2.125 -4.71484,6.73437 -2.58984,10.28906 1.40625,2.35156 3.89453,3.65235 6.44531,3.65235 1.3086,0 2.63672,-0.33985 3.84375,-1.0625 43.40235,-25.9375 65.07813,-60.17188 75.16797,-81.89844 1.04297,11.52344 2.35938,22.73437 3.89063,32.91797 0.85156,5.68359 1.7539,10.91797 2.6914,15.69922 -15.35156,30.83984 -39.23437,56.125 -55.07031,65.26562 z m 66.34766,-89.24219 c -3.5,-25.64843 -5.59375,-56.20703 -5.59375,-81.73828 0,-25.32031 2.13671,-45.33203 6.18359,-57.86718 3.05859,-9.48438 6.57422,-12.84766 8.65625,-12.84766 2.08203,0 5.59766,3.36328 8.65625,12.84766 4.04297,12.53515 6.18359,32.54687 6.18359,57.86718 0,25.53516 -2.09375,56.08985 -5.59765,81.73828 -3.20313,23.47266 -6.73047,36.5 -9.24219,42.74219 -2.51172,-6.24219 -6.03906,-19.26953 -9.24609,-42.74219 z m 0,0"
       inkscape:connector-curvature="0" />
    <path
       id="path2043"
       d="m 301.48437,171.67187 c 0,15.46094 15.41407,28.03907 34.35547,28.03907 18.94532,0 34.35547,-12.57813 34.35547,-28.03907 0,-15.46484 -15.41015,-28.04296 -34.35547,-28.04296 -18.9414,0 -34.35547,12.57812 -34.35547,28.04296 z m 53.70704,0 c 0,7.06641 -8.86329,13.03516 -19.35157,13.03516 -10.48828,0 -19.34765,-5.97266 -19.34765,-13.03516 0,-7.07031 8.85937,-13.03906 19.34765,-13.03906 10.48829,0 19.35157,5.97266 19.35157,13.03906 z m 0,0"
       inkscape:connector-curvature="0" />
    <path
       id="path2045"
       d="m 141.80078,171.67187 c 0,15.46094 15.41406,28.03907 34.35547,28.03907 18.94531,0 34.35547,-12.57813 34.35547,-28.03907 0,-15.46484 -15.41016,-28.04296 -34.35547,-28.04296 -18.94141,0 -34.35547,12.57812 -34.35547,28.04296 z m 53.70703,0 c 0,7.06641 -8.86328,13.03516 -19.35156,13.03516 -10.48828,0 -19.34766,-5.97266 -19.34766,-13.03516 0,-7.07031 8.85938,-13.03906 19.34766,-13.03906 10.48828,0 19.35156,5.97266 19.35156,13.03906 z m 0,0"
       inkscape:connector-curvature="0" />
    <path
       id="path2047"
       d="m 428.83203,75.257812 c 0,-13.21875 -10.75,-23.96875 -23.96875,-23.96875 -13.21484,0 -23.96484,10.75 -23.96484,23.96875 0,13.214844 10.75,23.964844 23.96484,23.964844 13.21875,0 23.96875,-10.75 23.96875,-23.964844 z m -32.92969,0 c 0,-4.945312 4.01953,-8.964843 8.96094,-8.964843 4.94531,0 8.96484,4.019531 8.96484,8.964843 0,4.941407 -4.01953,8.960938 -8.96484,8.960938 -4.9414,0 -8.96094,-4.019531 -8.96094,-8.960938 z m 0,0"
       inkscape:connector-curvature="0" />
    <path
       id="path2049"
       d="m 107.13281,51.289062 c -13.214841,0 -23.968748,10.75 -23.968748,23.96875 0,13.214844 10.753907,23.964844 23.968748,23.964844 13.21485,0 23.96875,-10.75 23.96875,-23.964844 0,-13.21875 -10.7539,-23.96875 -23.96875,-23.96875 z m 0,32.929688 c -4.9414,0 -8.960935,-4.019531 -8.960935,-8.960938 0,-4.945312 4.019535,-8.964843 8.960935,-8.964843 4.94141,0 8.96094,4.019531 8.96094,8.964843 0,4.941407 -4.01953,8.960938 -8.96094,8.960938 z m 0,0"
       inkscape:connector-curvature="0" />
  </g>
  <g
     id="g1799"
     transform="matrix(0.72220951,0,0,0.72220951,69.417233,-7.0028759)">
    <path
       style="fill:#4e5660"
       inkscape:connector-curvature="0"
       id="path1188"
       d="m 18.296875,188.873 c 6.921875,-6.92187 18.140625,-6.92187 25.0625,0 6.921875,6.91797 6.921875,18.14063 0,25.05859 -6.921875,6.92188 -26.332031,15.11329 -33.253906,8.19532 -6.921875,-6.92188 1.273437,-26.33594 8.191406,-33.25391 z m 0,0" />
    <path
       style="fill:#eda1ab"
       inkscape:connector-curvature="0"
       id="path1190"
       d="m 239.43359,282.25972 c 0,30.88281 -25.03515,55.92187 -55.92187,55.92187 -30.88281,0 -55.92188,-25.03906 -55.92188,-55.92187 0,-30.88672 25.03907,-55.92188 55.92188,-55.92188 30.88672,0 55.92187,25.03516 55.92187,55.92188 z m 0,0" />
    <path
       style="fill:#fae0bd"
       inkscape:connector-curvature="0"
       id="path1192"
       d="m 329.82031,364.65816 h -26.45312 c -10.66016,0 -19.30469,-8.64453 -19.30469,-19.30469 v -91.22266 h 65.0625 v 91.22266 c 0,10.66016 -8.64453,19.30469 -19.30469,19.30469 z m 0,0" />
    <path
       style="fill:#383c43"
       inkscape:connector-curvature="0"
       id="path1194"
       d="m 329.82031,364.65816 h -26.45312 c -10.66016,0 -19.30469,-8.64453 -19.30469,-19.30469 v -7.17578 h 65.0625 v 7.17578 c 0,10.66016 -8.64453,19.30469 -19.30469,19.30469 z m 0,0" />
    <path
       style="fill:#e1b89a"
       inkscape:connector-curvature="0"
       id="path1196"
       d="m 368.02344,39.165969 8.67968,8.67969 c 6.07422,6.07422 15.66407,6.83594 22.61719,1.78906 11.91406,-8.64062 19.26953,-22.21484 20.00391,-36.91406 C 419.89453,1.2753491 407.91406,-6.5371509 397.67187,-1.4004309 L 372.55078,11.189409 c -10.65625,5.33984 -12.95312,19.54688 -4.52734,27.97656 z m 0,0" />
    <path
       style="fill:#fcf2d0"
       inkscape:connector-curvature="0"
       id="path1198"
       d="M 266.45312,99.474559 H 186.125 c -53.69141,0 -97.21875,43.523441 -97.21875,97.218751 v 10.54688 c 0,19.64453 5.832031,37.92578 15.85156,53.21094 v 84.90234 c 0,10.66016 8.64063,19.30469 19.30469,19.30469 h 26.44922 c 10.66406,0 19.30859,-8.64453 19.30859,-19.30469 v -42.26172 c 5.30078,0.89453 10.7461,1.36719 16.30469,1.36719 H 219 v 40.89453 c 0,10.66406 8.64453,19.30469 19.30859,19.30469 h 26.44922 c 10.66406,0 19.30469,-8.64063 19.30469,-19.30469 v -42.48828 c 45.28516,-8.28516 79.60937,-47.94531 79.60937,-95.625 v -10.54688 c 0,-53.69531 -43.52734,-97.218751 -97.21875,-97.218751 z m 0,0" />
    <path
       style="fill:#4e5660"
       inkscape:connector-curvature="0"
       id="path1200"
       d="M 264.75781,364.65816 H 238.30469 C 227.64453,364.65816 219,356.01363 219,345.35347 v -7.17578 h 65.0625 v 7.17578 c 0,10.66016 -8.64453,19.30469 -19.30469,19.30469 z m 0,0" />
    <path
       style="fill:#4e5660"
       inkscape:connector-curvature="0"
       id="path1202"
       d="M 150.51172,364.65816 H 124.0625 c -10.66406,0 -19.30469,-8.64453 -19.30469,-19.30469 v -7.17578 h 65.0625 v 7.17578 c 0,10.66016 -8.64453,19.30469 -19.30859,19.30469 z m 0,0" />
    <path
       style="fill:#fcf2d0"
       inkscape:connector-curvature="0"
       id="path1204"
       d="m 401.70703,77.951129 c 0,-39.97266 -32.40625,-72.3789099 -72.37891,-72.3789099 h -47.97265 c -39.97266,0 -72.37891,32.4062499 -72.37891,72.3789099 v 37.972651 c 0,50.96485 41.31641,92.28125 92.28125,92.28125 h 130.07813 c 40.40625,0 73.16406,-32.75781 73.16406,-73.16406 v -13.55469 c 0,-24.042971 -19.49219,-43.535151 -43.53516,-43.535151 z m 0,0" />
    <path
       style="fill:#fae0bd"
       inkscape:connector-curvature="0"
       id="path1206"
       d="m 278.33984,5.6503491 c -38.57421,1.58203 -69.36328,33.3398399 -69.36328,72.3046899 v 37.968741 c 0,50.96485 41.31641,92.28125 92.28125,92.28125 h 55.46485 C 288.91406,186.82613 266.45312,99.474559 278.33984,5.6503491 Z m 0,0" />
    <path
       style="fill:#eda1ab"
       inkscape:connector-curvature="0"
       id="path1208"
       d="m 285.52344,76.540969 c 0,-12.02734 -12.2461,-21.78125 -27.35157,-21.78125 -15.10937,0 -27.35546,9.75391 -27.35546,21.78125 0,12.03125 12.24609,21.78516 27.35546,21.78516 15.10547,0 27.35157,-9.75391 27.35157,-21.78516 z m 0,0" />
    <path
       style="fill:#eda1ab"
       inkscape:connector-curvature="0"
       id="path1210"
       d="m 384.09375,76.540969 c 0,-12.02734 -12.25,-21.78125 -27.35547,-21.78125 -15.10937,0 -27.35547,9.75391 -27.35547,21.78125 0,12.03125 12.2461,21.78516 27.35547,21.78516 15.10547,0 27.35547,-9.75391 27.35547,-21.78516 z m 0,0" />
    <path
       style="fill:#eda1ab"
       inkscape:connector-curvature="0"
       id="path1212"
       d="m 460.96484,77.951129 c 24.04297,0 43.53516,19.49218 43.53516,43.535151 v 13.55469 c 0,40.40625 -32.75781,73.16406 -73.16406,73.16406 -40.40625,0 -73.16407,-32.75781 -73.16407,-73.16406 v -13.55469 c 0,-24.042971 19.49219,-43.535151 43.53516,-43.535151 z m 0,0" />
    <path
       style="fill:#e1b89a"
       inkscape:connector-curvature="0"
       id="path1214"
       d="m 242.09766,39.165969 -8.67969,8.67969 c -6.07422,6.07422 -15.66016,6.83594 -22.61328,1.78906 -11.91407,-8.64062 -19.26953,-22.21484 -20.00391,-36.91406 -0.57031,-11.4453099 11.40625,-19.2578099 21.65234,-14.1210899 l 25.11719,12.5898399 c 10.66016,5.33984 12.95703,19.54688 4.52735,27.97656 z m 0,0" />
    <g
       transform="translate(0,-11.021531)"
       style="fill:#4e5660"
       id="g1224">
      <path
         inkscape:connector-curvature="0"
         id="path1216"
         d="m 214.125,149.94922 c -18.92578,0 -33.3125,-17 -30.18359,-35.66406 l 5.41796,-32.324222 c 2.03125,-12.097657 12.5,-20.957032 24.76563,-20.957032 12.26562,0 22.73437,8.859375 24.76562,20.957032 l 5.41797,32.324222 c 3.12891,18.66406 -11.25781,35.66406 -30.18359,35.66406 z m 0,0" />
      <path
         inkscape:connector-curvature="0"
         id="path1218"
         d="m 88.90625,207.71484 v 0.84375 c 11.80469,7.95313 24.58594,12.09766 35.14063,10.66797 23.97265,-3.2539 65.98828,-44.7539 25.91796,-101.7539 -35.77734,14.35156 -61.05859,49.33203 -61.05859,90.24218 z m 0,0" />
      <path
         inkscape:connector-curvature="0"
         id="path1220"
         d="m 158.65625,233.6875 c -15.08984,23.4375 -6.14844,50.82422 19.68359,52.16797 25.83203,1.33984 58.12891,14.48437 54.71094,-27.79688 -2.10547,-26.04297 -11.92578,-40.04687 -31.87891,-41.13281 -19.95312,-1.08594 -32.79296,1.66797 -42.51562,16.76172 z m 0,0" />
      <path
         inkscape:connector-curvature="0"
         id="path1222"
         d="m 357.88672,251.34766 c -25.39453,-15.73438 -47.22656,-4.73438 -53.9336,11.14062 -5.73828,13.57813 -3.39453,29.41797 5.92579,42.75 22.15625,-11.08594 39.49218,-30.36719 48.00781,-53.89062 z m 0,0" />
    </g>
    <path
       inkscape:connector-curvature="0"
       id="path1226"
       d="m 474.45312,118.66206 c 0,-7.14062 -5.78906,-12.92968 -12.92968,-12.92968 -7.14063,0 -12.92578,5.78906 -12.92578,12.92968 0,7.14063 5.78515,12.92578 12.92578,12.92578 7.14062,0 12.92968,-5.78515 12.92968,-12.92578 z m -296.5,163.66016 c 4.30469,0.22266 9.01563,0.82031 13.57032,1.40234 6.15625,0.78516 12.40234,1.57813 18.32812,1.57813 8.53125,0 16.39453,-1.64844 22.3711,-7.35938 6.77734,-6.47265 9.49609,-16.78125 8.30468,-31.51172 -2.47265,-30.58984 -15.57812,-46.74609 -38.94922,-48.01562 -21.0039,-1.14063 -37.41796,1.85547 -49.22656,20.1875 -9.47265,14.71094 -11.17187,32.01953 -4.4375,45.16406 5.6836,11.09375 16.63281,17.85938 30.03906,18.55469 z m -12.98828,-55.59375 c 6.33594,-9.84375 13.83985,-13.53125 29.13672,-13.53125 2.07422,0 4.28906,0.0664 6.66016,0.19922 10.30859,0.55859 22.44531,4.95703 24.8125,34.24219 0.54687,6.74218 0.34375,15.58593 -3.71094,19.45703 -4.96094,4.74219 -16.89844,3.21875 -28.44531,1.75 -4.82813,-0.61719 -9.82031,-1.25 -14.6875,-1.50391 -8.15235,-0.42187 -14.19141,-4.02344 -17.46485,-10.41016 -4.30468,-8.40234 -2.88671,-19.97656 3.69922,-30.20312 z M 274.11328,37.650349 c -4.14453,0 -7.5,3.35937 -7.5,7.5 v 9.66015 c 0,4.14454 3.35547,7.5 7.5,7.5 4.14063,0 7.5,-3.35546 7.5,-7.5 v -9.66015 c 0,-4.14063 -3.35937,-7.5 -7.5,-7.5 z m 186.85156,32.80078 h -52.12109 c -0.52344,-5.58203 -1.60938,-11.00391 -3.22656,-16.19922 12.6914,-10.03906 20.38672,-24.90234 21.19531,-41.16016 0.40234,-8.0663999 -3.39453,-15.5195299 -10.16016,-19.9335899 -6.76562,-4.4101601 -15.12109,-4.8867201 -22.33984,-1.26562 l -25.12109,12.58984 c -1.3125,0.65625 -2.54688,1.42187 -3.70703,2.27734 -10.86329,-5.53906 -23.14454,-8.6875 -36.15625,-8.6875 h -47.97266 c -12.75,0 -25.25391,3.04297 -36.50781,8.83594 -1.21485,-0.91406 -2.51953,-1.72656 -3.91407,-2.42578 l -25.12109,-12.58984 c -7.22266,-3.6171901 -15.57031,-3.1484401 -22.33984,1.26562 -6.76563,4.41406 -10.56641,11.86719 -10.16407,19.9374999 0.64063,12.80469 5.54297,24.75 13.80079,34.15234 -7.83594,4.78125 -13.52735,12.80469 -15.14454,22.44922 l -3.78515,22.58594 c -25.25,1.89062 -48.71875,12.722651 -66.64453,30.914061 -11.22266,11.38672 -19.523441,24.90625 -24.542972,39.62891 -16.332032,0.53125 -31.90625,6.10156 -44.824219,16.05078 -9.453125,-4.75 -21.292969,-3.19141 -29.171875,4.6875 -4.425782,4.42578 -8.800782,12.15625 -11.144532,19.70312 -3.246093,10.4336 -2.199218,19.01172 2.949219,24.16016 3.1875,3.1875 7.6875,4.80078 13.125,4.80078 3.351563,0 7.058594,-0.61328 11.035157,-1.84766 7.546874,-2.35156 15.28125,-6.72265 19.703124,-11.14453 8.042969,-8.04687 9.503907,-20.22265 4.382813,-29.76953 8.867187,-6.35547 19.160156,-10.25391 30.003906,-11.37109 -1.085937,6.07812 -1.644531,12.29687 -1.644531,18.59375 v 10.54687 c 0,19.69141 5.472656,38.80078 15.851562,55.40625 v 23.64063 c 0,4.14062 3.355468,7.5 7.499998,7.5 4.14453,0 7.5,-3.35938 7.5,-7.5 v -25.83203 c 0,-1.46094 -0.42578,-2.89063 -1.22656,-4.10938 -8.99219,-13.72266 -14,-29.54687 -14.566406,-45.94922 8.003906,3.67188 15.925786,5.59375 23.269536,5.59375 1.80859,0 3.58593,-0.11719 5.32031,-0.35156 7.78515,-1.05469 16.34375,-5.07813 24.10156,-11.32813 8.44531,-6.80468 15.18359,-15.61328 19.48828,-25.47265 6.6211,-15.16797 10.26172,-38.88281 -7.1914,-68.41016 4.74609,-1.34765 9.61718,-2.32812 14.58593,-2.88281 -0.19531,9.22266 2.94922,18.24609 8.9961,25.39453 5.46484,6.45703 12.82812,10.83594 20.92578,12.60547 12.87109,41.55469 51.35156,70.16016 95.29687,70.16016 h 54.48828 c -0.4414,4.71093 -1.26562,9.32421 -2.41796,13.8164 -11.04688,-4.73828 -22.30469,-5.61719 -32.4375,-2.39453 -10.86329,3.45703 -19.55469,11.26563 -23.84766,21.42188 -5.58984,13.23046 -4.70703,28.5 2.12109,42.24218 -5.24609,2.05469 -10.74218,3.65235 -16.45312,4.69532 -3.5625,0.65234 -6.14844,3.75781 -6.14844,7.3789 v 27.81641 H 226.5 v -26.21875 c 0,-4.14453 -3.35547,-7.50391 -7.5,-7.50391 h -32.875 c -5.02734,0 -10.09375,-0.42578 -15.05859,-1.26172 -2.17578,-0.37109 -4.40235,0.24219 -6.08985,1.66407 -1.6875,1.42578 -2.66015,3.52343 -2.66015,5.73046 v 27.58985 h -50.0625 v -8.67188 c 0,-4.14062 -3.35547,-7.5 -7.5,-7.5 -4.14063,0 -7.500004,3.35938 -7.500004,7.5 v 23.34375 c 0,14.78125 12.027344,26.80469 26.808594,26.80469 h 26.44922 c 14.77344,0 26.79297,-12.01172 26.80469,-26.78125 2.05859,0.19922 4.125,0.30469 6.19531,0.30469 9.74609,0 19.33203,-2.27735 27.98828,-6.53125 v 6.20312 c 0,14.78125 12.02344,26.8086 26.80469,26.8086 h 26.44922 c 7.57812,0 14.42578,-3.16797 19.30859,-8.23828 4.87891,5.07031 11.72656,8.23828 19.30469,8.23828 h 26.44922 c 14.78125,0 26.80859,-12.02735 26.80859,-26.8086 v -84.96093 c 3.12891,-5.30079 5.80078,-10.89063 7.96875,-16.71485 0.25391,-0.50781 0.44531,-1.03125 0.57422,-1.5664 2.97265,-8.39063 4.88672,-17.25 5.625,-26.40235 h 60.54297 c 13.89062,0 27.58984,-3.59375 39.62109,-10.38672 3.60547,-2.03906 4.87891,-6.61328 2.83985,-10.21875 -2.03516,-3.60547 -6.60938,-4.8789 -10.21875,-2.84375 -9.78125,5.52735 -20.9336,8.44532 -32.24219,8.44532 -36.20703,0 -65.66016,-29.45704 -65.66016,-65.66016 v -13.55469 c 0,-19.87109 16.16406,-36.035151 36.03125,-36.035151 h 59.25781 C 480.83203,85.451129 497,101.61519 497,121.48628 v 13.55469 c 0,12.36328 -3.45313,24.40625 -9.98438,34.82422 -2.20312,3.50781 -1.14062,8.13672 2.36719,10.33984 3.51172,2.19922 8.14063,1.14063 10.33985,-2.37109 C 507.75391,165.02534 512,150.22847 512,135.04097 V 121.48628 C 512,93.345659 489.10547,70.451129 460.96484,70.451129 Z M 38.054688,208.63081 c -6.191407,6.1875 -20.246094,10.19922 -22.640626,8.19922 -2.019531,-2.40625 1.992188,-16.46094 8.1875,-22.65625 C 27.25,190.52534 32.996094,190.22847 37,193.26753 c 0.375,0.42188 0.789062,0.78516 1.226562,1.09766 3.804688,4 3.753907,10.33984 -0.171874,14.26562 z M 154.89844,172.83394 c -5.38672,12.33984 -18.77735,26.16406 -31.85938,27.9375 -7.53125,1.01953 -17.04297,-1.63281 -26.554685,-7.3125 0.796875,-22.50781 9.847655,-43.61328 25.730465,-59.73047 7.35547,-7.46094 15.79688,-13.47266 24.97657,-17.89844 15.75,25.22656 13.04687,44.77344 7.70703,57.00391 z m -4.38672,184.32422 H 124.0625 c -6.39844,0 -11.61328,-5.1211 -11.78906,-11.48047 h 50.02734 c -0.17578,6.35937 -5.39062,11.48047 -11.78906,11.48047 z M 211.5,321.75972 c -8.14062,5.76953 -17.95312,8.92187 -27.98828,8.92187 -2.07031,0 -4.14063,-0.14062 -6.19141,-0.40234 v -18.69141 c 2.92969,0.2461 5.8711,0.3711 8.80469,0.3711 H 211.5 Z m 53.25781,35.39844 h -26.45312 c -6.39844,0 -11.60938,-5.1211 -11.78906,-11.48047 h 50.03125 c -0.17969,6.35937 -5.39063,11.48047 -11.78907,11.48047 z m 65.0625,0 h -26.45312 c -6.39844,0 -11.61328,-5.1211 -11.78906,-11.48047 h 50.02734 c -0.17578,6.35937 -5.38672,11.48047 -11.78516,11.48047 z M 341.625,330.68159 h -50.0625 v -21.75781 c 19.51563,-4.79687 36.69531,-15.01562 50.0625,-28.83594 z m -29.00391,-46.50781 c -4.91796,-9.85547 -5.63281,-20.62109 -1.76171,-29.78906 2.54687,-6.02344 7.99609,-10.87109 14.58203,-12.96484 5.10156,-1.625 12.95703,-2.3125 22.9414,2.29687 -7.48437,16.78125 -19.98047,30.96094 -35.76172,40.45703 z M 201.66797,5.7245691 c 0.70703,-0.46094 2.18359,-1.23828 4.08984,-1.23828 1.00782,0 2.13672,0.21875 3.33203,0.8164 l 25.1211,12.5898499 c 2.89844,1.45312 4.85937,4.125 5.375,7.32421 0.51953,3.20313 -0.5,6.35547 -2.79297,8.64844 l -8.67969,8.67969 c -0.80078,0.79687 -1.73828,1.42969 -2.75781,1.91406 -3.51172,-1.28125 -7.29688,-1.97656 -11.23047,-1.97656 -0.10547,0 -0.21094,0.008 -0.32031,0.008 -9.28516,-7.35547 -14.92188,-18.23828 -15.51563,-30.14063 -0.1914,-3.8671799 2.30078,-5.9218699 3.37891,-6.6249999 z M 196.48828,123.248 c -4.39844,-5.19531 -6.27344,-12.02734 -5.14844,-18.74609 l 5.41797,-32.324221 c 1.32422,-7.89844 7.70703,-13.77734 15.51563,-14.58984 0.0898,-0.008 0.17578,-0.0234 0.26172,-0.0352 0.52343,-0.0469 1.05468,-0.0703 1.58984,-0.0703 2.62891,0 5.12891,0.57812 7.37891,1.61328 0.0742,0.0391 0.15625,0.0664 0.23047,0.10156 5.03906,2.40235 8.78125,7.14453 9.75781,12.98047 l 5.42187,32.324221 c 1.125,6.71875 -0.7539,13.55078 -5.15234,18.74609 -4.39844,5.19922 -10.82422,8.17969 -17.63281,8.17969 -6.8125,0 -13.24219,-2.98047 -17.64063,-8.17969 z m 154.1836,-1.76172 v 13.55469 c 0,27.05469 13.40234,51.02344 33.90234,65.66406 h -83.31641 c -35.72265,0 -67.18359,-22.24218 -79.41797,-55.07422 8.27344,-1.70312 15.8086,-6.11718 21.3711,-12.6914 7.2539,-8.57031 10.35156,-19.84375 8.49609,-30.91797 l -5.42187,-32.324221 c -1.05469,-6.27734 -3.83203,-11.86328 -7.80469,-16.32422 0.082,-0.0742 0.16406,-0.14453 0.24219,-0.22265 l 8.67968,-8.67969 c 5.74219,-5.74219 8.28907,-13.63281 6.99219,-21.64844 -0.1914,-1.19922 -0.47656,-2.36328 -0.82812,-3.49609 8.64453,-4.10547 18.1289,-6.25391 27.78906,-6.25391 h 47.97266 c 33.44531,0 61.05468,25.44141 64.50781,57.98828 -24.41406,3.79688 -43.16406,24.96094 -43.16406,50.425781 z m 48.78125,-81.749991 c -5.00391,-9.14063 -11.74219,-17.19922 -19.76954,-23.73438 L 401.03125,5.3026891 c 3.46094,-1.73437 6.34375,-0.28125 7.42578,0.42188 1.07813,0.70312 3.56641,2.76172 3.375,6.6249999 -0.52344,10.49609 -4.97265,20.19531 -12.3789,27.38672 z m 1.69531,65.996091 c -7.14063,0 -12.92969,5.78906 -12.92969,12.92968 0,7.14063 5.78906,12.92579 12.92969,12.92579 7.14062,0 12.92578,-5.78516 12.92578,-12.92579 0,-7.14062 -5.78516,-12.92968 -12.92578,-12.92968 z M 340.79688,37.650349 c -4.14454,0 -7.5,3.35937 -7.5,7.5 v 9.66015 c 0,4.14454 3.35546,7.5 7.5,7.5 4.14062,0 7.5,-3.35546 7.5,-7.5 v -9.66015 c 0,-4.14063 -3.35938,-7.5 -7.5,-7.5 z m 90.53906,139.890621 c 8.04687,0 15.69922,-3.48437 20.99609,-9.5625 2.72266,-3.12109 2.39844,-7.85937 -0.72656,-10.58203 -3.12109,-2.71875 -7.85938,-2.39453 -10.58203,0.72656 -2.44531,2.8086 -5.97656,4.41797 -9.6875,4.41797 -3.71094,0 -7.24219,-1.60937 -9.6875,-4.41797 -2.72266,-3.12109 -7.46094,-3.44531 -10.58203,-0.72656 -3.125,2.72266 -3.44922,7.46094 -0.73047,10.58203 5.29687,6.07813 12.95312,9.5625 21,9.5625 z m 0,0" />
  </g>
  <g
     id="g1920"
     transform="matrix(0.50423753,0,0,0.50423753,34.366062,28.84985)">
    <g
       id="g1885"
       style="fill-rule:evenodd">
      <path
         id="path1873"
         d="m 169.87891,222.03906 c -2.375,-20.64844 -13.64063,-51.10547 -29.36329,-78.34375 C 115.85938,100.99219 89.582031,82.386719 75.210938,90.683594 60.839844,98.980469 63.816406,131.03516 88.472656,173.74219 c 17.183594,29.76953 40.367184,56.84765 57.707034,67.71484 6.99609,-7.45703 14.96484,-13.99609 23.69922,-19.41797 z m 0,0"
         inkscape:connector-curvature="0"
         style="fill:#e199bd" />
      <path
         id="path1875"
         d="m 75.210938,90.683594 c 14.371093,-8.296875 40.644532,10.308596 65.300782,53.011716 15.72656,27.23828 26.99219,57.69531 29.36328,78.34375 9.19531,-5.70703 19.24219,-10.17578 29.90234,-13.16797 C 192.58203,175.83594 177.61719,137.40234 157.49219,102.54688 113.96484,27.152344 62.816406,-2.945312 31.570312,15.09375 0.324219,33.132812 0.816406,92.476562 44.34375,167.875 c 23.40625,40.53906 54.492188,77.45703 83.08594,100.12891 5.00781,-9.71875 11.33593,-18.64844 18.75,-26.54688 C 128.83984,230.58984 105.65625,203.51172 88.472656,173.74219 63.816406,131.03516 60.839844,98.980469 75.210938,90.683594 Z m 0,0"
         inkscape:connector-curvature="0"
         style="fill:#dca98a" />
      <path
         id="path1877"
         d="m 199.78125,208.87109 c -10.66406,2.99219 -20.70703,7.46094 -29.90234,13.16797 -8.73438,5.42188 -16.70313,11.96094 -23.69922,19.41797 -7.41407,7.89844 -13.74219,16.82813 -18.75,26.54688 -5.94922,11.55078 -10.03516,24.22265 -11.85156,37.61328 -31.304692,-3.09375 -49.808599,2.90625 -64.304692,20.40625 L 85.125,340.51172 c 0,0 -29.851562,5.51172 -40.351562,47.01172 6.46875,-4.6211 17.460937,-8.85938 28.808593,-11.08203 -0.28125,2.83593 -0.425781,5.69922 -0.425781,8.58593 0,64.60547 71.44531,116.97657 159.57812,116.97657 88.13672,0 159.58204,-52.3711 159.58204,-116.97657 0,-3.4414 -0.20313,-6.84765 -0.60157,-10.21484 10.38282,2.32812 20.1875,6.26172 26.14844,10.52344 -10.5,-41.5 -40.35156,-47.01172 -40.35156,-47.01172 l 33.85156,-14.49219 c -14.5,-17.5 -33,-23.5 -64.30469,-20.40625 -1.86718,-12.03906 -5.57031,-23.47656 -10.8164,-34.00391 -4.91406,-9.87109 -11.1836,-18.94531 -18.5586,-26.98828 -6.58984,-7.17578 -14.0625,-13.53125 -22.24609,-18.88672 v -0.004 c -9.15625,-5.98828 -19.20312,-10.73047 -29.89844,-13.98047 -10.77734,-3.27734 -22.21484,-5.03906 -34.0664,-5.03906 -10.98438,0 -21.61328,1.51562 -31.69141,4.34765 z m 32.95312,143.85547 c 13.38672,-0.0156 34.64454,2.53906 21.91016,24.60547 -5.92187,10.25391 -16.95312,16.46484 -21.91016,16.46484 -4.95703,0 -15.98437,-6.21093 -21.90625,-16.46484 -12.73437,-22.06641 8.52344,-24.62109 21.90625,-24.60547 z m 0,0"
         inkscape:connector-curvature="0"
         style="fill:#dca98a" />
      <path
         id="path1879"
         d="m 232.73437,352.72656 c -13.38281,-0.0156 -34.64062,2.53906 -21.90625,24.60547 5.92188,10.25391 16.94922,16.46484 21.90625,16.46484 4.95704,0 15.98829,-6.21093 21.91016,-16.46484 12.73438,-22.06641 -8.52344,-24.62109 -21.91016,-24.60547 z m 0,0"
         inkscape:connector-curvature="0"
         style="fill:#c58965" />
      <path
         id="path1881"
         d="m 302.59766,228.625 c 5.44921,4.17187 10.49218,8.79687 15.08593,13.80859 17.48828,-10.14843 41.59375,-37.99218 59.31641,-68.6914 24.65625,-42.70703 27.62891,-74.761721 13.26172,-83.058596 -14.3711,-8.296875 -40.64844,10.308596 -65.30469,53.011716 -16.11328,27.90625 -27.54297,59.19531 -29.52344,79.84766 0.004,0 0.004,0.004 0,0.004 2.4336,1.58594 4.79688,3.26563 7.09766,5.02735 0.0234,0.0156 0.0469,0.0312 0.0664,0.0508 z m 0,0"
         inkscape:connector-curvature="0"
         style="fill:#e199bd" />
      <path
         id="path1883"
         d="m 377,173.74219 c -17.72266,30.69922 -41.82813,58.54297 -59.31641,68.6914 4.19922,4.57813 8.03907,9.49219 11.47657,14.69532 2.59765,3.9375 4.96484,8.04296 7.08203,12.29296 29.08593,-22.53515 60.98828,-60.15625 84.88672,-101.54687 43.52734,-75.394531 44.01953,-134.742188 12.77343,-152.78125 -31.24218,-18.039062 -82.39453,12.058594 -125.92187,87.45313 -20.26563,35.10156 -35.30078,73.82421 -42.4375,107.01562 10.69531,3.25 20.73828,7.99219 29.89453,13.98437 1.98047,-20.65234 13.41016,-51.9414 29.52344,-79.85156 24.65234,-42.70312 50.92968,-61.308591 65.30078,-53.011716 C 404.63281,98.980469 401.65625,131.03516 377,173.74219 Z m 0,0"
         inkscape:connector-curvature="0"
         style="fill:#dca98a" />
    </g>
    <path
       id="path1887"
       d="M 438.90234,6.433594 C 419.82812,-4.578125 395.36328,-1.375 370.01562,15.453125 345.30078,31.859375 320.85547,60.25 299.32031,97.546875 c -18.2539,31.621095 -32.96875,67.421875 -41.16797,99.816405 -8.71093,-1.87109 -17.64843,-2.83984 -26.67578,-2.83984 -8.21094,0 -16.33594,0.80078 -24.28125,2.34765 C 198.96875,164.60937 184.29687,128.97656 166.15234,97.546875 144.61719,60.246094 120.17187,31.859375 95.457031,15.449219 70.109375,-1.375 45.644531,-4.578125 26.570312,6.433594 12.316406,14.664062 3.332031,29.535156 0.59375,49.441406 c -0.75,5.472656 3.074219,10.519532 8.542969,11.269532 5.46875,0.753906 10.519531,-3.070313 11.269531,-8.542969 1.894531,-13.753907 7.332031,-23.3125 16.164062,-28.414063 23.8125,-13.742187 70.019528,10.625 112.261718,83.792974 17.35547,30.05468 31.33984,64.05078 39.08984,94.67968 -3.62109,1.32422 -7.18359,2.8086 -10.67187,4.45703 -4.82422,-20.5 -14.96484,-45.28125 -28.07813,-67.98828 C 136.77734,117.22266 123.28906,100.44922 110.16797,90.1875 90.175781,74.550781 76.554688,78.363281 70.210938,82.023438 c -6.339844,3.660156 -16.449219,13.554687 -12.90625,38.683592 2.324218,16.49609 10.109374,36.5625 22.507812,58.03906 15.246094,26.40625 34.66016,50.39844 51.76172,64.42188 -2.42188,3.08594 -4.70313,6.26172 -6.82422,9.54297 C 99.1875,230.15234 72.925781,197.37891 53.003906,162.875 45.703125,150.22656 39.453125,137.6875 34.4375,125.61719 c -2.117188,-5.10156 -7.972656,-7.51563 -13.070312,-5.39844 -5.101563,2.12109 -7.519532,7.97266 -5.398438,13.07422 5.347656,12.86719 11.980469,26.18359 19.714844,39.58203 21.84375,37.83594 51.109375,73.84375 79.374996,97.89844 -3.38672,7.76172 -6,15.875 -7.77734,24.21875 -29.15625,-1.27344 -48.523438,6.32422 -63.710938,24.65234 -2.011718,2.42578 -2.761718,5.66016 -2.019531,8.72656 0.742188,3.06641 2.886719,5.60157 5.785157,6.84375 l 14.363281,6.14844 c -10.011719,7.83594 -20.925781,21.1875 -26.621094,43.70703 -1.03125,4.06641 0.589844,8.34375 4.054687,10.71094 3.464844,2.36719 8.035157,2.31641 11.453126,-0.12109 3.03125,-2.16797 7.515624,-4.30079 12.671874,-6.09766 1.511719,32.79297 19.390626,63.26953 50.726558,86.24219 C 145.82812,499.14453 188,512 232.73437,512 c 36.34375,0 70.97657,-8.4375 100.14844,-24.39844 4.84766,-2.64844 6.625,-8.72656 3.97656,-13.57031 -2.65234,-4.84766 -8.73046,-6.625 -13.57421,-3.97656 C 297.04297,484.41016 265.73437,492 232.73437,492 150.29687,492 83.222656,444.0625 83.15625,385.11328 c 3.542969,-0.34375 6.988281,-0.41406 10.132812,-0.12891 5.492188,0.49219 10.363278,-3.55468 10.863278,-9.05468 0.5,-5.5 -3.55468,-10.36328 -9.054684,-10.86328 -6.792968,-0.6211 -14.699218,-0.0469 -22.617187,1.42968 -0.550781,0.0625 -1.09375,0.16797 -1.617188,0.3125 -2.433593,0.49219 -4.859375,1.06641 -7.246093,1.71875 9.84375,-14.83984 22.144531,-17.91797 23.371093,-18.1914 4.371094,-0.71875 7.632813,-4.21485 8.179688,-8.61719 0.546875,-4.42188 -2.015625,-8.64844 -6.113281,-10.40234 l -19.796876,-8.47266 c 9.484376,-6.37891 22.792969,-9.50391 45.335938,-7.27734 5.35156,0.52343 10.16797,-3.27735 10.89062,-8.60547 7.15625,-52.69922 52.71875,-92.4375 105.98829,-92.4375 52.26562,0 97.70703,38.8789 105.70312,90.43359 0.8125,5.24609 5.58203,8.94531 10.86328,8.41797 22.54297,-2.22266 35.84766,0.89844 45.33203,7.28125 l -19.79297,8.47266 c -4.09765,1.7539 -6.66015,5.98046 -6.11328,10.40234 0.54688,4.40234 3.8086,7.89844 8.17969,8.61719 1.22656,0.27343 13.52734,3.35156 23.37109,18.1914 -1.45703,-0.39453 -2.92578,-0.76562 -4.40234,-1.10547 -0.47656,-0.14453 -0.96484,-0.2539 -1.46484,-0.32421 -8.89844,-1.91797 -17.96094,-2.73047 -25.61328,-2.03125 -5.5,0.5 -9.55469,5.36328 -9.05469,10.86328 0.5,5.5 5.36719,9.55468 10.86719,9.05468 3.96875,-0.35937 8.41796,-0.15625 12.94531,0.46485 0.0156,0.58984 0.0234,1.17578 0.0234,1.76562 0,11.14844 -2.42188,22.15235 -7.19141,32.70313 -2.27344,5.03125 -0.0391,10.95703 4.99219,13.23047 5.03515,2.27734 10.95703,0.0391 13.23437,-4.99219 5.46485,-12.08594 8.45313,-24.69531 8.90235,-37.52734 3.9414,1.54687 7.34765,3.27734 9.79687,5.03125 3.41406,2.43359 7.98828,2.48437 11.45313,0.11718 3.46484,-2.36328 5.08203,-6.64453 4.05468,-10.71093 -5.69922,-22.51954 -16.60937,-35.8711 -26.62109,-43.70313 l 14.35937,-6.14844 c 2.90235,-1.24218 5.04297,-3.77734 5.78516,-6.84375 0.74219,-3.0664 -0.008,-6.30078 -2.01953,-8.73047 -15.21484,-18.36328 -34.62891,-25.96484 -63.875,-24.64453 -1.625,-7.01953 -3.86719,-13.85547 -6.64063,-20.45703 28.86329,-24.05469 58.82032,-60.64844 81.23829,-99.47656 21.53515,-37.30078 33.89843,-72.66797 35.75,-102.277344 1.89843,-30.363281 -7.5586,-53.152344 -26.63282,-64.164062 z M 97.132812,168.74219 c -10.96875,-19 -18.082031,-37.05078 -20.023437,-50.82813 -1.617187,-11.45312 0.660156,-17.16015 3.101563,-18.57031 2.441406,-1.410156 8.527343,-0.527344 17.632812,6.59766 10.96094,8.57031 23.03906,23.7539 34.00781,42.7539 13.38281,23.17969 23.64844,49.25391 27.17188,68.52344 -3.94922,2.74609 -7.75782,5.72656 -11.40235,8.9375 -0.84375,0.73828 -1.65625,1.50781 -2.47656,2.26562 -15.15625,-12.14843 -33.97656,-35.37109 -48.011718,-59.67968 z m 221.839848,60.76562 c -1.46875,-1.39844 -2.96094,-2.77734 -4.50391,-4.10937 -2.68359,-2.32032 -5.46094,-4.51563 -8.31641,-6.58985 3.23829,-19.26562 13.83594,-46.5039 27.46875,-70.11328 10.96875,-19 23.04688,-34.18359 34.00782,-42.75781 9.10937,-7.125 15.1914,-8.003906 17.63281,-6.597656 2.44141,1.410156 4.71875,7.121096 3.10156,18.570316 -1.9414,13.78125 -9.05469,31.83203 -20.02344,50.83203 -14.64453,25.36718 -34.0039,49.01562 -49.36718,60.76562 z M 445.57422,69.351562 c -1.66016,26.542969 -13.10938,58.882808 -33.10938,93.523438 -20.4375,35.39844 -47.30078,68.69531 -73.375,91.26953 -2.09765,-3.34375 -4.34375,-6.60156 -6.75,-9.74609 17.39453,-13.82032 37.71485,-38.62891 53.32032,-65.65625 12.39843,-21.47266 20.17968,-41.54297 22.50781,-58.03516 3.54297,-25.128905 -6.56641,-35.023436 -12.90625,-38.683592 -6.34375,-3.660157 -19.96875,-7.46875 -39.95703,8.160156 -13.1211,10.265626 -26.60938,27.039066 -39.00781,48.511716 -13.21094,22.88281 -23.5625,48.41797 -28.3125,69.09766 -3.48047,-1.73047 -7.03516,-3.29688 -10.65625,-4.69531 7.70312,-30.85938 21.77734,-65.1836 39.30859,-95.55078 20,-34.64063 42.28516,-60.722661 64.4375,-75.433599 18.69141,-12.40625 35.67578,-15.375 47.82812,-8.359375 12.15235,7.015625 18.07032,23.207032 16.67188,45.597656 z m 0,0"
       inkscape:connector-curvature="0" />
    <path
       id="path1889"
       d="m 214.25781,442.55078 c 6.73828,0 13.19141,-2.23437 18.47656,-6.17578 5.28516,3.94141 11.74219,6.17578 18.48047,6.17578 11.21875,0 21.64063,-6.18359 27.20703,-16.13672 2.69532,-4.82031 0.97266,-10.91406 -3.84765,-13.60937 -4.82031,-2.69141 -10.91406,-0.97266 -13.60547,3.84765 -2.03516,3.63672 -5.77344,5.89844 -9.75391,5.89844 -3.26172,0 -6.34765,-1.53906 -8.47656,-4.08984 v -17.2461 c 7.38672,-3.39843 15.44141,-10 20.56641,-18.88281 6.00781,-10.41016 6.89062,-19.42969 2.6289,-26.80469 -4.98047,-8.61328 -15.80859,-12.80078 -33.07812,-12.80078 -0.0703,0 -0.14453,0 -0.21875,0 -17.28906,0 -28.11719,4.1875 -33.09766,12.80078 -4.26172,7.375 -3.3789,16.39453 2.62891,26.80469 5.1289,8.88281 13.17969,15.48438 20.5664,18.88281 v 17.2461 c -2.1289,2.55078 -5.21484,4.08984 -8.47656,4.08984 -3.98047,0 -7.71875,-2.26172 -9.75,-5.89453 -2.69531,-4.82031 -8.78906,-6.54688 -13.60937,-3.85156 -4.82032,2.69531 -6.54297,8.78906 -3.84766,13.60937 5.5625,9.95313 15.98828,16.13672 27.20703,16.13672 z m 2.66016,-77.04687 c 0.58594,-0.49219 3.96875,-2.77735 15.73437,-2.77735 h 0.1875 c 11.7461,0 15.125,2.28516 15.71485,2.77735 0.0156,0.52343 -0.1211,2.57812 -2.57422,6.83203 -3.90625,6.76562 -10.76172,10.74218 -13.2461,11.40625 -2.48437,-0.66407 -9.33984,-4.64453 -13.24609,-11.41016 -2.44922,-4.25 -2.58594,-6.30469 -2.57031,-6.82812 z m 0,0"
       inkscape:connector-curvature="0" />
    <path
       id="path1891"
       d="m 196.875,338.26172 c 1.69531,0 3.41797,-0.42969 4.99219,-1.33985 4.78125,-2.76171 6.42187,-8.8789 3.66015,-13.66015 -5.34375,-9.25391 -15.29687,-15 -25.98047,-15 -10.68359,0 -20.64062,5.74609 -25.98046,15 -2.76172,4.78125 -1.125,10.89844 3.66015,13.66015 4.78125,2.75782 10.89844,1.1211 13.66016,-3.66015 1.78125,-3.08594 5.09765,-5 8.66015,-5 3.5625,0 6.87891,1.91406 8.66016,5 1.85156,3.20703 5.21094,5 8.66797,5 z m 0,0"
       inkscape:connector-curvature="0" />
    <path
       id="path1893"
       d="m 294.58594,333.26172 c 1.85156,3.20703 5.21484,5 8.66797,5 1.69921,0 3.41796,-0.42969 4.99218,-1.33985 4.78516,-2.76171 6.42188,-8.8789 3.66016,-13.66015 -5.33984,-9.25391 -15.29688,-15 -25.98047,-15 -10.68359,0 -20.64062,5.74609 -25.98047,15 -2.76172,4.78125 -1.12109,10.89844 3.66016,13.66015 4.78125,2.75782 10.89844,1.1211 13.66015,-3.66015 1.78125,-3.08594 5.10157,-5 8.66016,-5 3.5625,0 6.87891,1.91406 8.66016,5 z m 0,0"
       inkscape:connector-curvature="0" />
    <path
       id="path1895"
       d="m 353.99609,447.50781 c -4.08593,3.71485 -4.38672,10.03906 -0.67187,14.125 1.97265,2.17188 4.68359,3.27344 7.40234,3.27344 2.39844,0 4.80469,-0.85938 6.72266,-2.60156 l 0.004,-0.004 c 4.08594,-3.71484 4.38672,-10.03906 0.67188,-14.125 -3.71484,-4.08594 -10.04297,-4.38281 -14.12891,-0.66797 z m 0,0"
       inkscape:connector-curvature="0" />
    <path
       id="path1897"
       d="m 22.726562,89.128906 v -0.0078 c -1.019531,-5.425782 -6.238281,-8.992188 -11.671874,-7.980469 -5.429688,1.019531 -9,6.246094 -7.984376,11.675781 0.902344,4.804688 5.097657,8.156252 9.816407,8.156252 0.609375,0 1.230469,-0.0547 1.855469,-0.17188 5.425781,-1.019528 9,-6.242184 7.984374,-11.671872 z m 0,0"
       inkscape:connector-curvature="0" />
  </g>
</svg>
