<?xml version="1.0" encoding="UTF-8" standalone="no"?>
<!-- Generator: Adobe Illustrator 19.0.0, SVG Export Plug-In . SVG Version: 6.00 Build 0)  -->

<svg
   xmlns:dc="http://purl.org/dc/elements/1.1/"
   xmlns:cc="http://creativecommons.org/ns#"
   xmlns:rdf="http://www.w3.org/1999/02/22-rdf-syntax-ns#"
   xmlns:svg="http://www.w3.org/2000/svg"
   xmlns="http://www.w3.org/2000/svg"
   xmlns:sodipodi="http://sodipodi.sourceforge.net/DTD/sodipodi-0.dtd"
   xmlns:inkscape="http://www.inkscape.org/namespaces/inkscape"
   version="1.1"
   id="Layer_1"
   x="0px"
   y="0px"
   viewBox="0 0 512 512"
   style="enable-background:new 0 0 512 512;"
   xml:space="preserve"
   sodipodi:docname="francia.svg"
   inkscape:version="0.92.2 5c3e80d, 2017-08-06"><metadata
     id="metadata45"><rdf:RDF><cc:Work
         rdf:about=""><dc:format>image/svg+xml</dc:format><dc:type
           rdf:resource="http://purl.org/dc/dcmitype/StillImage" /><dc:title></dc:title></cc:Work></rdf:RDF></metadata><defs
     id="defs43" /><sodipodi:namedview
     pagecolor="#ffffff"
     bordercolor="#666666"
     borderopacity="1"
     objecttolerance="10"
     gridtolerance="10"
     guidetolerance="10"
     inkscape:pageopacity="0"
     inkscape:pageshadow="2"
     inkscape:window-width="1440"
     inkscape:window-height="791"
     id="namedview41"
     showgrid="false"
     inkscape:zoom="0.4609375"
     inkscape:cx="-44.474576"
     inkscape:cy="256"
     inkscape:window-x="0"
     inkscape:window-y="1"
     inkscape:window-maximized="1"
     inkscape:current-layer="g8" /><path
     style="fill:#fafafa;fill-opacity:1"
     d="M 256,0 C 224.686,0 194.69,5.633 166.957,15.923 L 144.696,256 166.957,496.077 C 194.69,506.367 224.686,512 256,512 c 31.314,0 61.31,-5.633 89.043,-15.923 L 367.304,256 345.043,15.923 C 317.31,5.633 287.314,0 256,0 Z"
     id="path2"
     inkscape:connector-curvature="0" /><g
     id="g8"
     transform="rotate(90,256,256)"><path
       style="fill:#ea3e42;fill-opacity:1"
       d="M 496.077,166.957 C 459.906,69.473 366.071,0 256,0 145.929,0 52.094,69.473 15.923,166.957 Z"
       id="path4"
       inkscape:connector-curvature="0" /><path
       style="fill:#15359b;fill-opacity:1"
       d="M 15.923,345.043 C 52.094,442.527 145.929,512 256,512 366.071,512 459.906,442.527 496.077,345.043 Z"
       id="path6"
       inkscape:connector-curvature="0" /></g><g
     id="g10" /><g
     id="g12" /><g
     id="g14" /><g
     id="g16" /><g
     id="g18" /><g
     id="g20" /><g
     id="g22" /><g
     id="g24" /><g
     id="g26" /><g
     id="g28" /><g
     id="g30" /><g
     id="g32" /><g
     id="g34" /><g
     id="g36" /><g
     id="g38" /></svg>