<?xml version="1.0" encoding="UTF-8" standalone="no"?>
<svg
   xmlns:dc="http://purl.org/dc/elements/1.1/"
   xmlns:cc="http://creativecommons.org/ns#"
   xmlns:rdf="http://www.w3.org/1999/02/22-rdf-syntax-ns#"
   xmlns:svg="http://www.w3.org/2000/svg"
   xmlns="http://www.w3.org/2000/svg"
   xmlns:sodipodi="http://sodipodi.sourceforge.net/DTD/sodipodi-0.dtd"
   xmlns:inkscape="http://www.inkscape.org/namespaces/inkscape"
   height="512pt"
   viewBox="-26 0 512 512"
   width="512pt"
   version="1.1"
   id="svg18"
   sodipodi:docname="cuenta-atras (1).svg"
   inkscape:version="0.92.2 5c3e80d, 2017-08-06">
  <metadata
     id="metadata24">
    <rdf:RDF>
      <cc:Work
         rdf:about="">
        <dc:format>image/svg+xml</dc:format>
        <dc:type
           rdf:resource="http://purl.org/dc/dcmitype/StillImage" />
        <dc:title></dc:title>
      </cc:Work>
    </rdf:RDF>
  </metadata>
  <defs
     id="defs22" />
  <sodipodi:namedview
     pagecolor="#ffffff"
     bordercolor="#666666"
     borderopacity="1"
     objecttolerance="10"
     gridtolerance="10"
     guidetolerance="10"
     inkscape:pageopacity="0"
     inkscape:pageshadow="2"
     inkscape:window-width="1440"
     inkscape:window-height="791"
     id="namedview20"
     showgrid="false"
     inkscape:zoom="0.69140625"
     inkscape:cx="272.63152"
     inkscape:cy="310.85339"
     inkscape:window-x="0"
     inkscape:window-y="1"
     inkscape:window-maximized="1"
     inkscape:current-layer="svg18" />
  <path
     d="m395.820312 465.878906c21.152344-21.640625 34.179688-54.238281 34.179688-86.878906 0-66.269531-53.730469-123-120-123-14.097656 0-27.628906 2.429688-40.1875 6.898438h-.011719l-79.71875 108.902343.109375.300781c-.121094 2.277344-.191406 4.578126-.191406 6.898438 0 66.269531 53.730469 123 120 123h140zm0 0"
     fill="#ff637b"
     id="path2"
     style="fill:#f5737f;fill-opacity:1" />
  <path
     d="m270.269531 247.988281-80.070312-108.089843h-.007813c-12.558594-4.46875-26.089844-6.898438-40.191406-6.898438-66.269531 0-120 56.730469-120 123 0 32.640625 13.03125 65.238281 34.179688 86.878906l-54.179688 36.121094h140c68.453125 0 123.46875-60.339844 119.8125-129.898438zm0 0"
     fill="#ffe469"
     id="path4"
     style="fill:#ffea55;fill-opacity:1" />
  <path
     d="m395.820312 216.878906c21.152344-21.640625 34.179688-51.238281 34.179688-83.878906 0-70.164062-57.8125-122.96875-117.640625-122.96875-66.082031-1.675781-122.359375 54.964844-122.359375 122.96875 0 66.390625 57.761719 123 120 123h140zm0 0"
     fill="#61d7a8"
     id="path6"
     style="fill:#cbe558;fill-opacity:1" />
  <path
     d="m210 183c-2.917969 0-5.550781 1.261719-7.390625 3.261719-1.617187 1.777343-2.609375 4.136719-2.609375 6.738281 0 5.519531 4.480469 10 10 10 .871094 0 1.722656-.109375 2.53125-.328125 4.300781-1.113281 7.46875-5.023437 7.46875-9.671875 0-5.519531-4.480469-10-10-10zm0 0"
     id="path8" />
  <path
     d="m459.515625 259.074219c1.335937-4.125-.144531-8.644531-3.660156-11.183594l-45.179688-32.621094c18.984375-23.167969 29.324219-51.976562 29.324219-82.269531 0-69.746094-56.320312-133-130-133-69.925781 0-126.53125 57.789062-129.84375 126.519531-9.824219-2.339843-19.917969-3.519531-30.15625-3.519531-72.421875 0-130 61.761719-130 133 0 30.863281 10.734375 61.761719 29.125 84.898438l-44.671875 29.78125c-3.667969 2.445312-5.300781 7-4.023437 11.21875 1.277343 4.214843 5.164062 7.101562 9.570312 7.101562h140c10.214844 0 20.308594-1.234375 30.152344-3.683594 3.238281 69.019532 60.066406 126.683594 129.847656 126.683594h140c4.40625 0 8.292969-2.886719 9.570312-7.101562 1.277344-4.21875-.355468-8.773438-4.023437-11.21875l-44.671875-29.78125c18.394531-23.136719 29.125-54.035157 29.125-84.898438 0-47.523438-25.15625-89.417969-61.96875-113h71.96875c4.339844 0 8.183594-2.796875 9.515625-6.925781zm-39.515625 119.925781c0 29.949219-11.710938 59.816406-31.332031 79.890625-2.078125 2.128906-3.101563 5.074219-2.792969 8.03125.3125 2.960937 1.921875 5.628906 4.398438 7.277344l26.699218 17.800781h-106.972656c-59.625 0-110-51.746094-110-113 0-.144531.003906-.296875.003906-.441406 43.117188-18.730469 73.984375-60.402344 79.1875-108.164063 9.957032-2.902343 20.289063-4.394531 30.808594-4.394531 59.625 0 110 51.746094 110 113zm-110-133c-29.808594 0-54.621094-15.386719-70.1875-28.296875-4.25-3.523437-10.554688-2.9375-14.078125 1.3125-3.527344 4.25-2.941406 10.554687 1.3125 14.082031 8.632813 7.160156 19.769531 14.972656 32.9375 21.1875.007813.578125.015625 1.148438.015625 1.714844 0 2.050781-.0625 4.179688-.183594 6.339844-3.234375 57.394531-50.769531 106.660156-109.816406 106.660156h-106.972656l26.699218-17.800781c5.207032-3.46875 5.980469-10.832031 1.605469-15.308594-19.617187-20.074219-31.332031-49.941406-31.332031-79.890625 0-61.253906 50.375-113 110-113 10.523438 0 20.855469 1.492188 30.816406 4.398438.433594 3.9375 1.03125 7.855468 1.804688 11.660156 1.097656 5.410156 6.375 8.90625 11.785156 7.8125 5.414062-1.097656 8.914062-6.375 7.816406-11.789063-1.453125-7.164062-2.222656-14.800781-2.222656-22.082031 0-61.253906 50.375-113 110-113s110 51.746094 110 113c0 28.910156-11.125 56.21875-31.332031 76.890625-2.03125 2.082031-3.058594 4.945313-2.808594 7.847656.246094 2.898438 1.746094 5.546875 4.109375 7.25l29.101562 21.011719zm0 0"
     id="path10" />
  <g
     id="g1035"
     transform="matrix(0.74999998,0,0,0.74999998,552.16947,-168.13559)">
    <path
       id="path965"
       d="m -343.76697,437.80227 c -7.11932,0 -12.89264,5.77204 -12.89264,12.89265 0,7.12061 5.77332,12.89265 12.89264,12.89265 h 40.73948 c 7.11932,0 12.89264,-5.77204 12.89264,-12.89265 0,-7.12061 -5.77332,-12.89265 -12.89264,-12.89265 h -7.47774 v -90.24852 c 0,-5.812 -3.88971,-10.90589 -9.49543,-12.43624 -5.60315,-1.53165 -11.54537,0.87799 -14.49907,5.88291 l -18.06518,30.6007 c -3.62025,6.13174 -1.5845,14.03622 4.54724,17.65648 3.70921,2.18917 8.06306,2.30907 11.72715,0.7078 v 47.83687 z"
       inkscape:connector-curvature="0"
       style="stroke-width:1.28926456" />
    <path
       id="path967"
       d="m -291.52507,763.06101 h -26.68347 c 15.30646,-15.75961 31.74212,-37.88194 31.74212,-60.20498 0,-22.91289 -15.39512,-38.30801 -38.30678,-38.30801 -21.12242,0 -38.30801,17.18559 -38.30801,38.30801 0,6.80109 5.51426,12.31412 12.31412,12.31412 6.79986,0 12.31413,-5.51303 12.31413,-12.31412 0,-7.5424 6.13613,-13.67976 13.67976,-13.67976 12.26117,0 13.67853,7.80715 13.67853,13.67976 0,22.8193 -34.78863,53.61569 -46.96853,62.59762 -4.28655,3.15241 -6.06471,8.70239 -4.406,13.7598 1.65995,5.05618 6.37995,8.47581 11.70088,8.47581 h 59.24202 c 6.79986,0 12.31413,-5.51303 12.31413,-12.31412 0,-6.80109 -5.51304,-12.31413 -12.3129,-12.31413 z"
       inkscape:connector-curvature="0"
       style="stroke-width:1.23141241" />
    <path
       id="path969"
       d="m -542.56737,496.96101 h -22.32948 c -7.12531,0 -12.90349,5.77689 -12.90349,12.90349 0,7.12659 5.77818,12.90348 12.90349,12.90348 h 22.32948 c 7.07498,0 12.83252,5.75625 12.83252,12.83381 0,6.43368 -4.76268,11.76024 -10.94345,12.67897 -0.62582,-0.0297 -1.25551,-0.0477 -1.88907,-0.0477 h -22.32948 c -7.12531,0 -12.90349,5.77689 -12.90349,12.90349 0,7.12659 5.77818,12.90348 12.90349,12.90348 h 8.98212 c 0.72001,0.12517 1.4568,0.20259 2.21165,0.20259 h 11.13442 c 0.63356,0 1.26325,-0.0181 1.88907,-0.0477 6.18077,0.91873 10.94345,6.24529 10.94345,12.67897 0,7.07627 -5.75754,12.83381 -12.83252,12.83381 h -22.32948 c -7.12531,0 -12.90349,5.77689 -12.90349,12.90348 0,7.1266 5.77818,12.90349 12.90349,12.90349 h 22.32948 c 21.30623,0 38.63949,-17.33455 38.63949,-38.64078 0,-9.82988 -3.69556,-18.80941 -9.76278,-25.63535 6.06722,-6.82724 9.76278,-15.80548 9.76278,-25.63536 10e-4,-21.30752 -17.33326,-38.64207 -38.6382,-38.64207 z"
       inkscape:connector-curvature="0"
       style="stroke-width:1.29034853" />
    <g
       id="g975" />
    <g
       id="g977" />
    <g
       id="g979" />
    <g
       id="g981" />
    <g
       id="g983" />
    <g
       id="g985" />
    <g
       id="g987" />
    <g
       id="g989" />
    <g
       id="g991" />
    <g
       id="g993" />
    <g
       id="g995" />
    <g
       id="g997" />
    <g
       id="g999" />
    <g
       id="g1001" />
    <g
       id="g1003" />
  </g>
</svg>
